<svg width="80" height="80" viewBox="0 0 80 80" fill="none" xmlns="http://www.w3.org/2000/svg">
<g clip-path="url(#clip0)">
<path d="M65 10H55C54.337 10 53.7011 10.2634 53.2322 10.7322C52.7634 11.2011 52.5 11.837 52.5 12.5V15H27.5V12.5C27.5 11.837 27.2366 11.2011 26.7678 10.7322C26.2989 10.2634 25.663 10 25 10H15C14.337 10 13.7011 10.2634 13.2322 10.7322C12.7634 11.2011 12.5 11.837 12.5 12.5V72.5C12.5 73.163 12.7634 73.7989 13.2322 74.2678C13.7011 74.7366 14.337 75 15 75H65C65.663 75 66.2989 74.7366 66.7678 74.2678C67.2366 73.7989 67.5 73.163 67.5 72.5V12.5C67.5 11.837 67.2366 11.2011 66.7678 10.7322C66.2989 10.2634 65.663 10 65 10Z" fill="#E6ECFF"/>
<path d="M67.5 62.9004V72.5004C67.4981 73.1628 67.2341 73.7976 66.7657 74.266C66.2972 74.7345 65.6625 74.9985 65 75.0004H15C14.3375 74.9985 13.7028 74.7345 13.2343 74.266C12.7659 73.7976 12.5019 73.1628 12.5 72.5004V12.5004C12.503 12.3409 12.5197 12.182 12.55 12.0254C17.425 29.0504 31.075 58.6004 67.5 62.9004Z" fill="#B6C5E1"/>
<path d="M55 5H25C23.6193 5 22.5 6.11929 22.5 7.5V17.5C22.5 18.8807 23.6193 20 25 20H55C56.3807 20 57.5 18.8807 57.5 17.5V7.5C57.5 6.11929 56.3807 5 55 5Z" fill="#4294FF"/>
<path d="M52.5 35H27.5C26.837 35 26.2011 34.7366 25.7322 34.2678C25.2634 33.7989 25 33.163 25 32.5C25 31.837 25.2634 31.2011 25.7322 30.7322C26.2011 30.2634 26.837 30 27.5 30H52.5C53.163 30 53.7989 30.2634 54.2678 30.7322C54.7366 31.2011 55 31.837 55 32.5C55 33.163 54.7366 33.7989 54.2678 34.2678C53.7989 34.7366 53.163 35 52.5 35Z" fill="#4294FF"/>
<path d="M52.5 55H27.5C26.837 55 26.2011 54.7366 25.7322 54.2678C25.2634 53.7989 25 53.163 25 52.5C25 51.837 25.2634 51.2011 25.7322 50.7322C26.2011 50.2634 26.837 50 27.5 50H52.5C53.163 50 53.7989 50.2634 54.2678 50.7322C54.7366 51.2011 55 51.837 55 52.5C55 53.163 54.7366 53.7989 54.2678 54.2678C53.7989 54.7366 53.163 55 52.5 55Z" fill="#4294FF"/>
<path d="M52.5 65H27.5C26.837 65 26.2011 64.7366 25.7322 64.2678C25.2634 63.7989 25 63.163 25 62.5C25 61.837 25.2634 61.2011 25.7322 60.7322C26.2011 60.2634 26.837 60 27.5 60H52.5C53.163 60 53.7989 60.2634 54.2678 60.7322C54.7366 61.2011 55 61.837 55 62.5C55 63.163 54.7366 63.7989 54.2678 64.2678C53.7989 64.7366 53.163 65 52.5 65Z" fill="#3C7ED5"/>
<path d="M52.5 45H27.5C26.837 45 26.2011 44.7366 25.7322 44.2678C25.2634 43.7989 25 43.163 25 42.5C25 41.837 25.2634 41.2011 25.7322 40.7322C26.2011 40.2634 26.837 40 27.5 40H52.5C53.163 40 53.7989 40.2634 54.2678 40.7322C54.7366 41.2011 55 41.837 55 42.5C55 43.163 54.7366 43.7989 54.2678 44.2678C53.7989 44.7366 53.163 45 52.5 45Z" fill="#4294FF"/>
<path d="M43.3217 55C40.7917 53.5164 38.3765 51.8451 36.0967 50L43.3217 55Z" fill="#4294FF"/>
<path d="M30.7266 44.9992H27.5016C26.9257 44.9981 26.3679 44.7983 25.9224 44.4334C25.4769 44.0686 25.171 43.5612 25.0564 42.9969C24.9418 42.4326 25.0254 41.846 25.2933 41.3363C25.5612 40.8265 25.9968 40.4249 26.5266 40.1992C27.837 41.8754 29.2391 43.4779 30.7266 44.9992Z" fill="#3C7ED5"/>
<path d="M43.325 55.0029H27.5C26.837 55.0029 26.2011 54.7395 25.7322 54.2707C25.2634 53.8019 25 53.166 25 52.5029C25 51.8399 25.2634 51.204 25.7322 50.7352C26.2011 50.2663 26.837 50.0029 27.5 50.0029H36.1C38.3799 51.848 40.795 53.5193 43.325 55.0029Z" fill="#3C7ED5"/>
<g clip-path="url(#clip1)">
<path d="M55.2925 33.332V40.1948L55.9787 41.1098L56.665 40.1948L57.58 36.9922L56.665 33.332H55.2925Z" fill="#FF847C"/>
<path d="M58.0391 33.332H56.6665V40.1948L57.3528 41.1098L58.0391 40.1948V33.332Z" fill="#FF4C4C"/>
<path d="M55.2925 79.9995H56.665L57.58 76.5681L56.665 73.1367L55.994 72.2217L55.2925 73.1367V79.9995Z" fill="#FF847C"/>
<path d="M58.0391 79.9995V73.1367L57.3528 72.2217L56.6665 73.1367V79.9995H58.0391Z" fill="#FF4C4C"/>
<path d="M47.0566 40.1967L45.6841 41.1118L44.3115 40.1967V33.334H47.0566V40.1967Z" fill="#FF847C"/>
<path d="M52.5459 40.1948L51.1733 41.1098L49.8008 40.1948V33.332H52.5459V40.1948Z" fill="#FF847C"/>
<path d="M63.5278 40.1967L62.1553 41.1118L60.7827 40.1967V33.334H63.5278V40.1967Z" fill="#FF4C4C"/>
<path d="M69.0166 40.1948L67.644 41.1098L66.2715 40.1948V33.332H69.0166V40.1948Z" fill="#FF4C4C"/>
<path d="M80.0014 47.0586H73.1387L72.2236 45.686L73.1387 44.3135H80.0014V47.0586Z" fill="#FF4C4C"/>
<path d="M80.0014 52.5449H73.1387L72.2236 51.1724L73.1387 49.7998H80.0014V52.5449Z" fill="#FF4C4C"/>
<path d="M80.0014 58.0371H73.1387L72.2236 56.6645L73.1387 55.292H80.0014V58.0371Z" fill="#FF4C4C"/>
<path d="M80.0014 63.5263H73.1387L72.2236 62.1538L73.1387 60.7812H80.0014V63.5263Z" fill="#FF4C4C"/>
<path d="M80.0014 69.0205H73.1387L72.2236 67.6479L73.1387 66.2754H80.0014V69.0205Z" fill="#FF4C4C"/>
<path d="M63.5278 79.9995H60.7827V73.1367L62.1553 72.2217L63.5278 73.1367V79.9995Z" fill="#FF4C4C"/>
<path d="M69.021 79.9995H66.2759V73.1367L67.6484 72.2217L69.021 73.1367V79.9995Z" fill="#FF4C4C"/>
<path d="M47.0566 79.997H44.3115V73.1343L45.6841 71.7617L47.0566 73.1343V79.997Z" fill="#FF847C"/>
<path d="M52.5454 79.997H49.8003V73.1343L51.1728 71.7617L52.5454 73.1343V79.997Z" fill="#FF847C"/>
<path d="M40.1962 47.0586H33.3335V44.3135H40.1962L41.1113 45.686L40.1962 47.0586Z" fill="#FF847C"/>
<path d="M40.1962 52.5459H33.3335V49.8008H40.1962L41.1113 51.1733L40.1962 52.5459Z" fill="#FF847C"/>
<path d="M40.1962 58.0381H33.3335V55.293H40.1962L41.1113 56.6655L40.1962 58.0381Z" fill="#FF847C"/>
<path d="M40.1962 63.5263H33.3335V60.7812H40.1962L41.1113 62.1538L40.1962 63.5263Z" fill="#FF847C"/>
<path d="M40.1962 69.0176H33.3335V66.2725H40.1962L41.1113 67.645L40.1962 69.0176Z" fill="#FF847C"/>
<path d="M40.2002 40.1982V73.1394H56.6708L57.5858 57.0959L56.6708 40.1982H40.2002Z" fill="#FFBF73"/>
<path d="M56.6665 40.1982H73.1371V73.1394H56.6665V40.1982Z" fill="#FF9B27"/>
<path d="M47.0571 47.0566V66.2723H56.665L57.58 56.6645L56.665 47.0566H47.0571Z" fill="#575F64"/>
<path d="M56.6665 47.0566H66.2743V66.2723H56.6665V47.0566Z" fill="#474F54"/>
<path d="M49.8003 49.7998V63.5253H56.663L57.5781 56.6626L56.663 49.7998H49.8003Z" fill="#FF847C"/>
<path d="M56.6665 49.7998H63.5292V63.5253H56.6665V49.7998Z" fill="#FF4C4C"/>
<path d="M53.916 56.6601C53.916 58.1762 55.1451 59.4052 56.6611 59.4052L57.5761 56.6601L56.6611 53.915C55.1451 53.915 53.916 55.1441 53.916 56.6601Z" fill="#575F64"/>
<path d="M56.6665 53.915V59.4052C58.1825 59.4052 59.4116 58.1762 59.4116 56.6601C59.4116 55.1441 58.1825 53.915 56.6665 53.915Z" fill="#474F54"/>
</g>
</g>
<defs>
<clipPath id="clip0">
<rect width="80" height="80" fill="white"/>
</clipPath>
<clipPath id="clip1">
<rect width="46.6667" height="46.6667" fill="white" transform="translate(33.333 33.334)"/>
</clipPath>
</defs>
</svg>
