<svg width="80" height="80" viewBox="0 0 80 80" fill="none" xmlns="http://www.w3.org/2000/svg">
<path d="M25 52.5H15C13.6193 52.5 12.5 53.6193 12.5 55V72.5C12.5 73.8807 13.6193 75 15 75H25C26.3807 75 27.5 73.8807 27.5 72.5V55C27.5 53.6193 26.3807 52.5 25 52.5Z" fill="#E6ECFF"/>
<path d="M45 40H35C33.6193 40 32.5 41.1193 32.5 42.5V72.5C32.5 73.8807 33.6193 75 35 75H45C46.3807 75 47.5 73.8807 47.5 72.5V42.5C47.5 41.1193 46.3807 40 45 40Z" fill="#E6ECFF"/>
<path d="M65 25H55C53.6193 25 52.5 26.1193 52.5 27.5V72.5C52.5 73.8807 53.6193 75 55 75H65C66.3807 75 67.5 73.8807 67.5 72.5V27.5C67.5 26.1193 66.3807 25 65 25Z" fill="#E6ECFF"/>
<path d="M57.3074 6.5455C57.1177 6.08936 56.7975 5.69938 56.387 5.42445C55.9765 5.14951 55.494 5.00186 54.9999 5H44.9999C44.3369 5 43.701 5.26339 43.2322 5.73223C42.7633 6.20107 42.4999 6.83696 42.4999 7.5C42.4999 8.16304 42.7633 8.79893 43.2322 9.26777C43.701 9.73661 44.3369 10 44.9999 10H48.9647L18.2325 40.7325C17.9937 40.9631 17.8032 41.239 17.6722 41.544C17.5412 41.849 17.4722 42.177 17.4693 42.509C17.4664 42.8409 17.5297 43.1701 17.6554 43.4774C17.7811 43.7846 17.9667 44.0638 18.2015 44.2985C18.4362 44.5332 18.7153 44.7188 19.0226 44.8446C19.3298 44.9703 19.659 45.0335 19.991 45.0306C20.3229 45.0277 20.651 44.9588 20.956 44.8277C21.261 44.6967 21.5368 44.5063 21.7675 44.2675L52.4999 13.5352V17.5C52.4999 18.163 52.7633 18.7989 53.2322 19.2678C53.701 19.7366 54.3369 20 54.9999 20C55.663 20 56.2989 19.7366 56.7677 19.2678C57.2365 18.7989 57.4999 18.163 57.4999 17.5V7.5C57.499 7.17229 57.4336 6.84796 57.3074 6.5455Z" fill="#4294FF"/>
<path d="M27.5 60.4951V72.4951C27.4981 73.1576 27.2341 73.7923 26.7657 74.2608C26.2972 74.7292 25.6625 74.9932 25 74.9951H15C14.3375 74.9932 13.7028 74.7292 13.2343 74.2608C12.7659 73.7923 12.5019 73.1576 12.5 72.4951V61.0201C17.5061 61.1744 22.5169 60.999 27.5 60.4951Z" fill="#B7C6E2"/>
<path d="M32.5 59.9031C37.5949 59.152 42.6141 57.9558 47.5 56.3281V72.5031C47.4981 73.1656 47.2341 73.8003 46.7657 74.2688C46.2972 74.7372 45.6625 75.0012 45 75.0031H35C34.3375 75.0012 33.7028 74.7372 33.2343 74.2688C32.7659 73.8003 32.5019 73.1656 32.5 72.5031V59.9031Z" fill="#B7C6E2"/>
<path d="M67.5 45.2246V72.4996C67.4981 73.1621 67.2341 73.7968 66.7657 74.2653C66.2972 74.7337 65.6625 74.9977 65 74.9996H55C54.3375 74.9977 53.7028 74.7337 53.2343 74.2653C52.7659 73.7968 52.5019 73.1621 52.5 72.4996V54.4246C57.9457 52.1522 63.0059 49.0486 67.5 45.2246Z" fill="#B7C6E2"/>
<path d="M72.5 75H7.5C6.83696 75 6.20107 74.7366 5.73223 74.2678C5.26339 73.7989 5 73.163 5 72.5C5 71.837 5.26339 71.2011 5.73223 70.7322C6.20107 70.2634 6.83696 70 7.5 70H72.5C73.163 70 73.7989 70.2634 74.2678 70.7322C74.7366 71.2011 75 71.837 75 72.5C75 73.163 74.7366 73.7989 74.2678 74.2678C73.7989 74.7366 73.163 75 72.5 75Z" fill="#2965ED"/>
</svg>
