<svg width="80" height="80" viewBox="0 0 80 80" fill="none" xmlns="http://www.w3.org/2000/svg">
<path d="M50.3985 8.13867H40.7988C40.1623 8.13867 39.5518 8.39152 39.1018 8.84159C38.6517 9.29167 38.3988 9.9021 38.3988 10.5386V12.9385H14.3996V10.5386C14.3996 9.9021 14.1467 9.29167 13.6966 8.84159C13.2466 8.39152 12.6361 8.13867 11.9996 8.13867H2.39993C1.76343 8.13867 1.153 8.39152 0.702923 8.84159C0.252849 9.29167 0 9.9021 0 10.5386V68.1369C0 68.7734 0.252849 69.3838 0.702923 69.8339C1.153 70.2839 1.76343 70.5368 2.39993 70.5368H50.3985C51.035 70.5368 51.6454 70.2839 52.0955 69.8339C52.5456 69.3838 52.7984 68.7734 52.7984 68.1369V10.5386C52.7984 9.9021 52.5456 9.29167 52.0955 8.84159C51.6454 8.39152 51.035 8.13867 50.3985 8.13867Z" fill="#E6ECFF"/>
<path d="M52.7984 58.9206V68.1363C52.7966 68.7722 52.5431 69.3816 52.0935 69.8313C51.6438 70.2809 51.0344 70.5344 50.3985 70.5362H2.39993C1.76399 70.5344 1.15463 70.2809 0.704951 69.8313C0.255275 69.3816 0.00183624 68.7722 0 68.1363V10.538C0.00283636 10.3849 0.0188956 10.2324 0.0479985 10.082C4.72786 26.4255 17.8315 54.7927 52.7984 58.9206Z" fill="#B6C5E1"/>
<path d="M40.7987 3.33398H11.9995C10.6741 3.33398 9.59961 4.40847 9.59961 5.73391V15.3336C9.59961 16.6591 10.6741 17.7336 11.9995 17.7336H40.7987C42.1241 17.7336 43.1986 16.6591 43.1986 15.3336V5.73391C43.1986 4.40847 42.1241 3.33398 40.7987 3.33398Z" fill="#4294FF"/>
<path d="M38.4012 32.1377H14.4019C13.7654 32.1377 13.1549 31.8849 12.7049 31.4348C12.2548 30.9847 12.002 30.3743 12.002 29.7378C12.002 29.1013 12.2548 28.4909 12.7049 28.0408C13.1549 27.5907 13.7654 27.3379 14.4019 27.3379H38.4012C39.0377 27.3379 39.6481 27.5907 40.0982 28.0408C40.5482 28.4909 40.8011 29.1013 40.8011 29.7378C40.8011 30.3743 40.5482 30.9847 40.0982 31.4348C39.6481 31.8849 39.0377 32.1377 38.4012 32.1377Z" fill="#4294FF"/>
<path d="M38.4012 51.337H14.4019C13.7654 51.337 13.1549 51.0841 12.7049 50.634C12.2548 50.184 12.002 49.5735 12.002 48.937C12.002 48.3005 12.2548 47.6901 12.7049 47.24C13.1549 46.79 13.7654 46.5371 14.4019 46.5371H38.4012C39.0377 46.5371 39.6481 46.79 40.0982 47.24C40.5482 47.6901 40.8011 48.3005 40.8011 48.937C40.8011 49.5735 40.5482 50.184 40.0982 50.634C39.6481 51.0841 39.0377 51.337 38.4012 51.337Z" fill="#4294FF"/>
<path d="M38.4012 60.9366H14.4019C13.7654 60.9366 13.1549 60.6837 12.7049 60.2337C12.2548 59.7836 12.002 59.1732 12.002 58.5366C12.002 57.9001 12.2548 57.2897 12.7049 56.8396C13.1549 56.3896 13.7654 56.1367 14.4019 56.1367H38.4012C39.0377 56.1367 39.6481 56.3896 40.0982 56.8396C40.5482 57.2897 40.8011 57.9001 40.8011 58.5366C40.8011 59.1732 40.5482 59.7836 40.0982 60.2337C39.6481 60.6837 39.0377 60.9366 38.4012 60.9366Z" fill="#3C7ED5"/>
<path d="M38.4012 41.7374H14.4019C13.7654 41.7374 13.1549 41.4845 12.7049 41.0344C12.2548 40.5844 12.002 39.9739 12.002 39.3374C12.002 38.7009 12.2548 38.0905 12.7049 37.6404C13.1549 37.1903 13.7654 36.9375 14.4019 36.9375H38.4012C39.0377 36.9375 39.6481 37.1903 40.0982 37.6404C40.5482 38.0905 40.8011 38.7009 40.8011 39.3374C40.8011 39.9739 40.5482 40.5844 40.0982 41.0344C39.6481 41.4845 39.0377 41.7374 38.4012 41.7374Z" fill="#4294FF"/>
<path d="M29.5857 51.337C27.1569 49.9128 24.8385 48.3083 22.6499 46.5371L29.5857 51.337Z" fill="#4294FF"/>
<path d="M17.4932 41.7241H14.3973C13.8445 41.723 13.309 41.5312 12.8814 41.1809C12.4537 40.8307 12.16 40.3436 12.05 39.8019C11.9399 39.2602 12.0203 38.6971 12.2774 38.2077C12.5346 37.7184 12.9528 37.3329 13.4613 37.1162C14.7193 38.7253 16.0653 40.2636 17.4932 41.7241Z" fill="#3C7ED5"/>
<path d="M29.5934 51.337H14.4019C13.7654 51.337 13.1549 51.0841 12.7049 50.634C12.2548 50.184 12.002 49.5735 12.002 48.937C12.002 48.3005 12.2548 47.6901 12.7049 47.24C13.1549 46.79 13.7654 46.5371 14.4019 46.5371H22.6576C24.8462 48.3083 27.1647 49.9128 29.5934 51.337Z" fill="#3C7ED5"/>
<path d="M35.1953 28.8128V73.1928C35.1953 73.7533 35.4201 74.2908 35.8201 74.6871C36.2202 75.0835 36.7628 75.3061 37.3286 75.3061H77.8607C78.4265 75.3061 78.9691 75.0835 79.3691 74.6871C79.7692 74.2908 79.994 73.7533 79.994 73.1928V18.2461C79.994 17.6857 79.7692 17.1481 79.3691 16.7518C78.9691 16.3555 78.4265 16.1328 77.8607 16.1328H47.9949L35.1953 28.8128Z" fill="#FF8C8C"/>
<path d="M47.9949 28.8115L35.1953 30.9249V28.8115H47.9949Z" fill="#DB5C5C"/>
<path d="M79.994 67.138V73.2033C79.9923 73.7633 79.7671 74.2999 79.3673 74.6958C78.9676 75.0918 78.426 75.315 77.8607 75.3166H37.3286C36.7633 75.315 36.2216 75.0918 35.8219 74.6958C35.4222 74.2999 35.1969 73.7633 35.1953 73.2033V28.8233L43.0244 21.0674C43.7071 23.54 44.5177 26.1394 45.4563 28.8233C45.4931 28.9615 45.5431 29.096 45.6057 29.2248C45.6483 29.3305 45.691 29.4573 45.7337 29.563C51.3015 45.1171 61.5839 62.6578 79.994 67.138Z" fill="#FF566B"/>
<path d="M71.4652 30.9346H65.0654C63.8872 30.9346 62.9321 31.8807 62.9321 33.0479V39.3879C62.9321 40.5551 63.8872 41.5012 65.0654 41.5012H71.4652C72.6434 41.5012 73.5985 40.5551 73.5985 39.3879V33.0479C73.5985 31.8807 72.6434 30.9346 71.4652 30.9346Z" fill="#FFD8BC"/>
<path d="M56.531 39.3536H43.7314C43.1656 39.3536 42.623 39.131 42.223 38.7346C41.8229 38.3383 41.5981 37.8008 41.5981 37.2403C41.5981 36.6798 41.8229 36.1423 42.223 35.7459C42.623 35.3496 43.1656 35.127 43.7314 35.127H56.531C57.0968 35.127 57.6394 35.3496 58.0395 35.7459C58.4395 36.1423 58.6643 36.6798 58.6643 37.2403C58.6643 37.8008 58.4395 38.3383 58.0395 38.7346C57.6394 39.131 57.0968 39.3536 56.531 39.3536Z" fill="#FFD8BC"/>
<path d="M71.4652 43.6006H65.0654C63.8872 43.6006 62.9321 44.5468 62.9321 45.7139V52.0539C62.9321 53.2211 63.8872 54.1672 65.0654 54.1672H71.4652C72.6434 54.1672 73.5985 53.2211 73.5985 52.0539V45.7139C73.5985 44.5468 72.6434 43.6006 71.4652 43.6006Z" fill="#FFD8BC"/>
<path d="M56.531 52.0714H43.7314C43.1656 52.0714 42.623 51.8487 42.223 51.4524C41.8229 51.0561 41.5981 50.5185 41.5981 49.9581C41.5981 49.3976 41.8229 48.86 42.223 48.4637C42.623 48.0674 43.1656 47.8447 43.7314 47.8447H56.531C57.0968 47.8447 57.6394 48.0674 58.0395 48.4637C58.4395 48.86 58.6643 49.3976 58.6643 49.9581C58.6643 50.5185 58.4395 51.0561 58.0395 51.4524C57.6394 51.8487 57.0968 52.0714 56.531 52.0714Z" fill="#FFD8BC"/>
<path d="M71.4652 56.292H65.0654C63.8872 56.292 62.9321 57.2382 62.9321 58.4053V64.7453C62.9321 65.9125 63.8872 66.8587 65.0654 66.8587H71.4652C72.6434 66.8587 73.5985 65.9125 73.5985 64.7453V58.4053C73.5985 57.2382 72.6434 56.292 71.4652 56.292Z" fill="#FFD8BC"/>
<path d="M56.531 64.7374H43.7314C43.1656 64.7374 42.623 64.5148 42.223 64.1184C41.8229 63.7221 41.5981 63.1846 41.5981 62.6241C41.5981 62.0636 41.8229 61.526 42.223 61.1297C42.623 60.7334 43.1656 60.5107 43.7314 60.5107H56.531C57.0968 60.5107 57.6394 60.7334 58.0395 61.1297C58.4395 61.526 58.6643 62.0636 58.6643 62.6241C58.6643 63.1846 58.4395 63.7221 58.0395 64.1184C57.6394 64.5148 57.0968 64.7374 56.531 64.7374Z" fill="#FFA665"/>
<path d="M35.1953 28.8128H47.9949V16.1328L35.1953 28.8128Z" fill="#FF4B4B"/>
<path d="M45.4563 28.8233H35.1953L43.0244 21.0674C43.7071 23.54 44.4964 26.1394 45.4563 28.8233Z" fill="#FF0000"/>
<path d="M49.8539 39.3536H43.7314C43.1656 39.3536 42.623 39.131 42.223 38.7346C41.8229 38.3383 41.5981 37.8008 41.5981 37.2403C41.5981 36.6798 41.8229 36.1423 42.223 35.7459C42.623 35.3496 43.1656 35.127 43.7314 35.127H47.9126C48.5099 36.5429 49.1499 37.9588 49.8539 39.3536Z" fill="#FFA665"/>
<path d="M57.5123 51.8178C57.214 51.9877 56.8751 52.0753 56.531 52.0714H43.7314C43.1656 52.0714 42.623 51.8487 42.223 51.4524C41.8229 51.0561 41.5981 50.5185 41.5981 49.9581C41.5981 49.3976 41.8229 48.86 42.223 48.4637C42.623 48.0674 43.1656 47.8447 43.7314 47.8447H54.6324C55.5497 49.1973 56.4884 50.5287 57.5123 51.8178Z" fill="#FFA665"/>
<path d="M73.5776 64.9299C73.5346 65.4568 73.294 65.9487 72.9031 66.3086C72.5121 66.6685 71.9993 66.8703 71.4657 66.8742H65.0659C64.5006 66.8725 63.9589 66.6494 63.5592 66.2534C63.1595 65.8574 62.9342 65.3208 62.9326 64.7608V58.4208C62.928 58.2203 62.9568 58.0204 63.0179 57.8291C66.1256 60.748 69.6921 63.1463 73.5776 64.9299Z" fill="#FFA665"/>
<path d="M45.6057 29.2131L35.1953 30.9249V28.8115H45.4563C45.4931 28.9498 45.5431 29.0842 45.6057 29.2131Z" fill="#D74557"/>
</svg>
