<svg width="80" height="80" viewBox="0 0 80 80" fill="none" xmlns="http://www.w3.org/2000/svg">
<path d="M65 10H55C54.337 10 53.7011 10.2634 53.2322 10.7322C52.7634 11.2011 52.5 11.837 52.5 12.5V15H27.5V12.5C27.5 11.837 27.2366 11.2011 26.7678 10.7322C26.2989 10.2634 25.663 10 25 10H15C14.337 10 13.7011 10.2634 13.2322 10.7322C12.7634 11.2011 12.5 11.837 12.5 12.5V72.5C12.5 73.163 12.7634 73.7989 13.2322 74.2678C13.7011 74.7366 14.337 75 15 75H65C65.663 75 66.2989 74.7366 66.7678 74.2678C67.2366 73.7989 67.5 73.163 67.5 72.5V12.5C67.5 11.837 67.2366 11.2011 66.7678 10.7322C66.2989 10.2634 65.663 10 65 10Z" fill="#E6ECFF"/>
<path d="M67.5 62.8994V72.4994C67.4981 73.1619 67.2341 73.7966 66.7657 74.2651C66.2972 74.7335 65.6625 74.9975 65 74.9994H15C14.3375 74.9975 13.7028 74.7335 13.2343 74.2651C12.7659 73.7966 12.5019 73.1619 12.5 72.4994V12.4994C12.503 12.3399 12.5197 12.181 12.55 12.0244C17.425 29.0494 31.075 58.5994 67.5 62.8994Z" fill="#B6C5E1"/>
<path d="M55 5H25C23.6193 5 22.5 6.11929 22.5 7.5V17.5C22.5 18.8807 23.6193 20 25 20H55C56.3807 20 57.5 18.8807 57.5 17.5V7.5C57.5 6.11929 56.3807 5 55 5Z" fill="#4294FF"/>
<path d="M52.5 35H27.5C26.837 35 26.2011 34.7366 25.7322 34.2678C25.2634 33.7989 25 33.163 25 32.5C25 31.837 25.2634 31.2011 25.7322 30.7322C26.2011 30.2634 26.837 30 27.5 30H52.5C53.163 30 53.7989 30.2634 54.2678 30.7322C54.7366 31.2011 55 31.837 55 32.5C55 33.163 54.7366 33.7989 54.2678 34.2678C53.7989 34.7366 53.163 35 52.5 35Z" fill="#4294FF"/>
<path d="M52.5 55H27.5C26.837 55 26.2011 54.7366 25.7322 54.2678C25.2634 53.7989 25 53.163 25 52.5C25 51.837 25.2634 51.2011 25.7322 50.7322C26.2011 50.2634 26.837 50 27.5 50H52.5C53.163 50 53.7989 50.2634 54.2678 50.7322C54.7366 51.2011 55 51.837 55 52.5C55 53.163 54.7366 53.7989 54.2678 54.2678C53.7989 54.7366 53.163 55 52.5 55Z" fill="#4294FF"/>
<path d="M52.5 65H27.5C26.837 65 26.2011 64.7366 25.7322 64.2678C25.2634 63.7989 25 63.163 25 62.5C25 61.837 25.2634 61.2011 25.7322 60.7322C26.2011 60.2634 26.837 60 27.5 60H52.5C53.163 60 53.7989 60.2634 54.2678 60.7322C54.7366 61.2011 55 61.837 55 62.5C55 63.163 54.7366 63.7989 54.2678 64.2678C53.7989 64.7366 53.163 65 52.5 65Z" fill="#3C7ED5"/>
<path d="M52.5 45H27.5C26.837 45 26.2011 44.7366 25.7322 44.2678C25.2634 43.7989 25 43.163 25 42.5C25 41.837 25.2634 41.2011 25.7322 40.7322C26.2011 40.2634 26.837 40 27.5 40H52.5C53.163 40 53.7989 40.2634 54.2678 40.7322C54.7366 41.2011 55 41.837 55 42.5C55 43.163 54.7366 43.7989 54.2678 44.2678C53.7989 44.7366 53.163 45 52.5 45Z" fill="#4294FF"/>
<path d="M43.3222 55C40.7921 53.5164 38.377 51.8451 36.0972 50L43.3222 55Z" fill="#4294FF"/>
<path d="M30.7266 44.9982H27.5016C26.9257 44.9971 26.3679 44.7973 25.9224 44.4325C25.4769 44.0676 25.171 43.5602 25.0564 42.9959C24.9418 42.4316 25.0254 41.845 25.2933 41.3353C25.5612 40.8256 25.9968 40.4239 26.5266 40.1982C27.837 41.8745 29.2391 43.4769 30.7266 44.9982Z" fill="#3C7ED5"/>
<path d="M43.325 55.0029H27.5C26.837 55.0029 26.2011 54.7395 25.7322 54.2707C25.2634 53.8019 25 53.166 25 52.5029C25 51.8399 25.2634 51.204 25.7322 50.7352C26.2011 50.2663 26.837 50.0029 27.5 50.0029H36.1C38.3799 51.848 40.795 53.5193 43.325 55.0029Z" fill="#3C7ED5"/>
<path d="M75.961 76.6667H37.3726C35.9154 76.6667 34.6091 75.8723 33.8783 74.5418C33.1625 73.2384 33.1516 71.7011 33.8482 70.3236L53.1426 32.1813C53.8335 30.8154 55.151 30 56.6668 30C58.1826 30 59.5 30.8154 60.191 32.1813L79.4853 70.3235C80.1822 71.7009 80.1711 73.2385 79.4552 74.5418C78.7246 75.8723 77.4184 76.6667 75.961 76.6667Z" fill="#FF847C"/>
<path d="M79.4836 70.3235L60.1893 32.1813C59.4983 30.8154 58.1809 30 56.665 30V76.6667H75.9594C77.4167 76.6667 78.7229 75.8723 79.4535 74.5418C80.1693 73.2385 80.1803 71.7009 79.4836 70.3235Z" fill="#FF4C4C"/>
<path d="M56.6551 70.4325C54.644 70.4325 53.0078 68.7059 53.0078 66.5835C53.0078 64.4611 54.644 62.7344 56.6551 62.7344C58.6663 62.7344 60.3025 64.4611 60.3025 66.5835C60.3025 68.7059 58.6663 70.4325 56.6551 70.4325Z" fill="#FFF3F3"/>
<path d="M56.6552 58.8638C54.644 58.8638 53.0078 57.1371 53.0078 55.0147V46.6909C53.0078 44.5685 54.644 42.8418 56.6551 42.8418C58.6663 42.8418 60.3025 44.5685 60.3025 46.6909V55.0147C60.3025 57.1371 58.6664 58.8638 56.6552 58.8638Z" fill="#FFF3F3"/>
<path d="M56.6666 42.835H56.6665V58.857H56.6667C58.6778 58.857 60.3139 57.1303 60.3139 55.0079V46.6841C60.3139 44.5618 58.6777 42.835 56.6666 42.835Z" fill="#DAD0CB"/>
<path d="M56.6666 62.7275H56.6665V70.4257H56.6666C58.6777 70.4257 60.3139 68.6991 60.3139 66.5767C60.3139 64.4543 58.6777 62.7275 56.6666 62.7275Z" fill="#DAD0CB"/>
</svg>
