<svg width="80" height="80" viewBox="0 0 80 80" fill="none" xmlns="http://www.w3.org/2000/svg">
<g clip-path="url(#clip0)">
<path d="M65 10H55C54.337 10 53.7011 10.2634 53.2322 10.7322C52.7634 11.2011 52.5 11.837 52.5 12.5V15H27.5V12.5C27.5 11.837 27.2366 11.2011 26.7678 10.7322C26.2989 10.2634 25.663 10 25 10H15C14.337 10 13.7011 10.2634 13.2322 10.7322C12.7634 11.2011 12.5 11.837 12.5 12.5V72.5C12.5 73.163 12.7634 73.7989 13.2322 74.2678C13.7011 74.7366 14.337 75 15 75H65C65.663 75 66.2989 74.7366 66.7678 74.2678C67.2366 73.7989 67.5 73.163 67.5 72.5V12.5C67.5 11.837 67.2366 11.2011 66.7678 10.7322C66.2989 10.2634 65.663 10 65 10Z" fill="#E6ECFF"/>
<path d="M67.5 62.8994V72.4994C67.4981 73.1619 67.2341 73.7966 66.7657 74.2651C66.2972 74.7335 65.6625 74.9975 65 74.9994H15C14.3375 74.9975 13.7028 74.7335 13.2343 74.2651C12.7659 73.7966 12.5019 73.1619 12.5 72.4994V12.4994C12.503 12.3399 12.5197 12.181 12.55 12.0244C17.425 29.0494 31.075 58.5994 67.5 62.8994Z" fill="#B6C5E1"/>
<path d="M55 5H25C23.6193 5 22.5 6.11929 22.5 7.5V17.5C22.5 18.8807 23.6193 20 25 20H55C56.3807 20 57.5 18.8807 57.5 17.5V7.5C57.5 6.11929 56.3807 5 55 5Z" fill="#4294FF"/>
<path d="M52.5 35H27.5C26.837 35 26.2011 34.7366 25.7322 34.2678C25.2634 33.7989 25 33.163 25 32.5C25 31.837 25.2634 31.2011 25.7322 30.7322C26.2011 30.2634 26.837 30 27.5 30H52.5C53.163 30 53.7989 30.2634 54.2678 30.7322C54.7366 31.2011 55 31.837 55 32.5C55 33.163 54.7366 33.7989 54.2678 34.2678C53.7989 34.7366 53.163 35 52.5 35Z" fill="#4294FF"/>
<path d="M52.5 55H27.5C26.837 55 26.2011 54.7366 25.7322 54.2678C25.2634 53.7989 25 53.163 25 52.5C25 51.837 25.2634 51.2011 25.7322 50.7322C26.2011 50.2634 26.837 50 27.5 50H52.5C53.163 50 53.7989 50.2634 54.2678 50.7322C54.7366 51.2011 55 51.837 55 52.5C55 53.163 54.7366 53.7989 54.2678 54.2678C53.7989 54.7366 53.163 55 52.5 55Z" fill="#4294FF"/>
<path d="M52.5 65H27.5C26.837 65 26.2011 64.7366 25.7322 64.2678C25.2634 63.7989 25 63.163 25 62.5C25 61.837 25.2634 61.2011 25.7322 60.7322C26.2011 60.2634 26.837 60 27.5 60H52.5C53.163 60 53.7989 60.2634 54.2678 60.7322C54.7366 61.2011 55 61.837 55 62.5C55 63.163 54.7366 63.7989 54.2678 64.2678C53.7989 64.7366 53.163 65 52.5 65Z" fill="#3C7ED5"/>
<path d="M52.5 45H27.5C26.837 45 26.2011 44.7366 25.7322 44.2678C25.2634 43.7989 25 43.163 25 42.5C25 41.837 25.2634 41.2011 25.7322 40.7322C26.2011 40.2634 26.837 40 27.5 40H52.5C53.163 40 53.7989 40.2634 54.2678 40.7322C54.7366 41.2011 55 41.837 55 42.5C55 43.163 54.7366 43.7989 54.2678 44.2678C53.7989 44.7366 53.163 45 52.5 45Z" fill="#4294FF"/>
<path d="M43.3222 55C40.7921 53.5164 38.377 51.8451 36.0972 50L43.3222 55Z" fill="#4294FF"/>
<path d="M30.7266 44.9982H27.5016C26.9257 44.9971 26.3679 44.7973 25.9224 44.4325C25.4769 44.0676 25.171 43.5602 25.0564 42.9959C24.9418 42.4316 25.0254 41.845 25.2933 41.3353C25.5612 40.8256 25.9968 40.4239 26.5266 40.1982C27.837 41.8745 29.2391 43.4769 30.7266 44.9982Z" fill="#3C7ED5"/>
<path d="M43.325 55.0029H27.5C26.837 55.0029 26.2011 54.7395 25.7322 54.2707C25.2634 53.8019 25 53.166 25 52.5029C25 51.8399 25.2634 51.204 25.7322 50.7352C26.2011 50.2663 26.837 50.0029 27.5 50.0029H36.1C38.3799 51.848 40.795 53.5193 43.325 55.0029Z" fill="#3C7ED5"/>
<g clip-path="url(#clip1)">
<path d="M63.4351 74.458C63.4351 71.4441 60.9833 69.001 57.9585 69.001C54.9338 69.001 52.4819 71.4441 52.4819 74.458C52.4819 77.4718 54.9338 79.915 57.9585 79.915C60.9833 79.915 63.4351 77.4718 63.4351 74.458Z" fill="#F7C92B"/>
<path d="M57.9604 69.001C57.4068 69.001 56.8724 69.0836 56.3687 69.236C58.6168 69.9153 60.2535 71.9956 60.2535 74.458C60.2535 76.92 58.6168 79.0007 56.3687 79.68C56.8724 79.8324 57.4068 79.915 57.9604 79.915C60.9852 79.915 63.437 77.4718 63.437 74.458C63.437 71.4441 60.9852 69.001 57.9604 69.001Z" fill="#F2B51D"/>
<path d="M58.6023 42.6018C56.8432 42.954 55.1312 41.8189 54.7777 40.0661C54.4242 38.3137 55.5636 36.6076 57.3223 36.2555C59.081 35.9033 60.7933 37.0384 61.1469 38.7912C61.5 40.5436 60.361 42.2497 58.6023 42.6018Z" fill="#F7C92B"/>
<path d="M61.1444 38.7912C60.7908 37.0384 59.0785 35.9033 57.3198 36.2555C57.1561 36.2882 56.998 36.3331 56.8457 36.3879C57.8724 36.7625 58.6854 37.6447 58.9166 38.7912C59.2373 40.3805 58.3297 41.9318 56.8461 42.4694C57.389 42.6674 57.9915 42.7236 58.5998 42.6018C60.3585 42.2497 61.4975 40.5436 61.1444 38.7912Z" fill="#F2B51D"/>
<path d="M71.5229 73.539H44.3939C41.9663 73.539 39.9985 71.5783 39.9985 69.1597C39.9985 67.8207 40.6068 66.5535 41.6527 65.7129L42.5242 65.0122C44.5401 63.3923 45.7124 60.9502 45.7124 58.3696V53.7671C45.7124 46.9764 51.2368 41.4717 58.0518 41.4717C64.8665 41.4717 70.3913 46.9764 70.3913 53.7671V58.4547C70.3913 60.9865 71.5196 63.388 73.4713 65.0094L74.32 65.7143C75.3328 66.5557 75.9182 67.8018 75.9182 69.1156V69.1597C75.9182 71.5783 73.9504 73.539 71.5229 73.539Z" fill="#F7E249"/>
<path d="M74.3167 65.7079L73.468 65.0029C71.5163 63.3811 70.388 60.98 70.388 58.4479V53.7603C70.388 46.9699 64.8632 41.4648 58.0485 41.4648C56.841 41.4648 55.6744 41.6386 54.5718 41.9608C59.6938 43.4565 63.4345 48.173 63.4345 53.7603V58.4479C63.4345 60.98 64.5629 63.3811 66.5146 65.0029L67.3636 65.7079C68.376 66.5492 68.9618 67.7953 68.9618 69.1091V69.1532C68.9618 71.5718 66.994 73.5325 64.5664 73.5325H71.5199C73.9471 73.5325 75.9149 71.5718 75.9149 69.1532V69.1091C75.9149 67.7953 75.3295 66.5492 74.3167 65.7079Z" fill="#F7C92B"/>
<path d="M80.146 43.7977C80.146 37.9697 75.4046 33.2451 69.5556 33.2451C63.7066 33.2451 58.9648 37.9697 58.9648 43.7977C58.9648 49.6257 63.7066 54.3504 69.5556 54.3504C75.4046 54.3504 80.146 49.6257 80.146 43.7977Z" fill="#FC476E"/>
<path d="M72.3937 33.6328C75.0946 35.5451 76.8565 38.6878 76.8565 42.2408C76.8565 48.0687 72.1151 52.7934 66.2661 52.7934C65.2815 52.7934 64.3286 52.6591 63.4243 52.4085C65.1538 53.6333 67.2685 54.3532 69.552 54.3532C75.4006 54.3532 80.1424 49.6286 80.1424 43.8006C80.1424 38.9535 76.8625 34.8704 72.3937 33.6328Z" fill="#CC2B5A"/>
</g>
</g>
<defs>
<clipPath id="clip0">
<rect width="80" height="80" fill="white"/>
</clipPath>
<clipPath id="clip1">
<rect width="46.6667" height="46.6667" fill="white" transform="translate(36.6665 33.333)"/>
</clipPath>
</defs>
</svg>
