<svg width="24" height="24" viewBox="0 0 24 24" fill="none" xmlns="http://www.w3.org/2000/svg">
<path d="M9 14.25H10.5" stroke="#3D85CC" stroke-width="1.125" stroke-linecap="round" stroke-linejoin="round"/>
<path d="M9 11.25H14.25" stroke="#3D85CC" stroke-width="1.125" stroke-linecap="round" stroke-linejoin="round"/>
<path d="M15.0002 3.75H18.75C18.9489 3.75 19.1397 3.82902 19.2803 3.96967C19.421 4.11032 19.5 4.30109 19.5 4.5V11.7592M8.9998 3.75H5.25C5.05109 3.75 4.86032 3.82902 4.71967 3.96967C4.57902 4.11032 4.5 4.30109 4.5 4.5V20.25C4.5 20.4489 4.57902 20.6397 4.71967 20.7803C4.86032 20.921 5.05109 21 5.25 21H9.81921" stroke="#3D85CC" stroke-width="1.125" stroke-linecap="round" stroke-linejoin="round"/>
<path d="M8.25 6.75V6C8.25 5.00544 8.64509 4.05161 9.34835 3.34835C10.0516 2.64509 11.0054 2.25 12 2.25C12.9946 2.25 13.9484 2.64509 14.6517 3.34835C15.3549 4.05161 15.75 5.00544 15.75 6V6.75H8.25Z" stroke="#3D85CC" stroke-width="1.125" stroke-linecap="round" stroke-linejoin="round"/>
<path d="M16.6863 12.8609L12.15 20.698C12.0775 20.8234 12.0392 20.9657 12.0391 21.1106C12.0389 21.2555 12.077 21.3979 12.1494 21.5234C12.2217 21.649 12.3259 21.7532 12.4514 21.8257C12.5768 21.8982 12.7192 21.9363 12.8641 21.9363H21.9366C22.0815 21.9363 22.2239 21.8982 22.3493 21.8257C22.4748 21.7532 22.5789 21.649 22.6513 21.5234C22.7237 21.3979 22.7617 21.2555 22.7616 21.1106C22.7615 20.9657 22.7232 20.8234 22.6506 20.698L18.1144 12.8609C18.0419 12.7357 17.9378 12.6318 17.8124 12.5595C17.6871 12.4873 17.545 12.4492 17.4003 12.4492C17.2557 12.4492 17.1136 12.4873 16.9882 12.5595C16.8629 12.6318 16.7588 12.7357 16.6863 12.8609V12.8609Z" stroke="#3D85CC" stroke-width="1.125" stroke-linecap="round" stroke-linejoin="round"/>
<path d="M17.4004 16.1621V18.2246" stroke="#3D85CC" stroke-width="1.125" stroke-linecap="round" stroke-linejoin="round"/>
<path d="M17.4473 20.6914C17.7579 20.6914 18.0098 20.4396 18.0098 20.1289C18.0098 19.8182 17.7579 19.5664 17.4473 19.5664C17.1366 19.5664 16.8848 19.8182 16.8848 20.1289C16.8848 20.4396 17.1366 20.6914 17.4473 20.6914Z" fill="white"/>
</svg>
