<svg width="24" height="24" viewBox="0 0 24 24" fill="none" xmlns="http://www.w3.org/2000/svg">
<path d="M9 14.25H10.5" stroke="#3D85CC" stroke-width="1.125" stroke-linecap="round" stroke-linejoin="round"/>
<path d="M9 11.25H13.5" stroke="#3D85CC" stroke-width="1.125" stroke-linecap="round" stroke-linejoin="round"/>
<path d="M15.0002 3.75H18.75C18.9489 3.75 19.1397 3.82902 19.2803 3.96967C19.421 4.11032 19.5 4.30109 19.5 4.5V10.296M8.9998 3.75H5.25C5.05109 3.75 4.86032 3.82902 4.71967 3.96967C4.57902 4.11032 4.5 4.30109 4.5 4.5V20.25C4.5 20.4489 4.57902 20.6397 4.71967 20.7803C4.86032 20.921 5.05109 21 5.25 21H11.2308" stroke="#3D85CC" stroke-width="1.125" stroke-linecap="round" stroke-linejoin="round"/>
<path d="M8.25 6.75V6C8.25 5.00544 8.64509 4.05161 9.34835 3.34835C10.0516 2.64509 11.0054 2.25 12 2.25C12.9946 2.25 13.9484 2.64509 14.6517 3.34835C15.3549 4.05161 15.75 5.00544 15.75 6V6.75H8.25Z" stroke="#3D85CC" stroke-width="1.125" stroke-linecap="round" stroke-linejoin="round"/>
<path d="M18.8445 15.957H15.957V18.8445H18.8445V15.957Z" stroke="#3D85CC" stroke-width="1.125" stroke-linecap="round" stroke-linejoin="round"/>
<path d="M21.1129 13.2754H13.6879C13.4601 13.2754 13.2754 13.4601 13.2754 13.6879V21.1129C13.2754 21.3407 13.4601 21.5254 13.6879 21.5254H21.1129C21.3407 21.5254 21.5254 21.3407 21.5254 21.1129V13.6879C21.5254 13.4601 21.3407 13.2754 21.1129 13.2754Z" stroke="#3D85CC" stroke-width="1.125" stroke-linecap="round" stroke-linejoin="round"/>
<path d="M21.5254 16.1631H22.7629" stroke="#3D85CC" stroke-width="1.125" stroke-linecap="round" stroke-linejoin="round"/>
<path d="M21.5254 18.6377H22.7629" stroke="#3D85CC" stroke-width="1.125" stroke-linecap="round" stroke-linejoin="round"/>
<path d="M12.0381 16.1631H13.2756" stroke="#3D85CC" stroke-width="1.125" stroke-linecap="round" stroke-linejoin="round"/>
<path d="M12.0381 18.6377H13.2756" stroke="#3D85CC" stroke-width="1.125" stroke-linecap="round" stroke-linejoin="round"/>
<path d="M18.6377 21.5254V22.7629" stroke="#3D85CC" stroke-width="1.125" stroke-linecap="round" stroke-linejoin="round"/>
<path d="M16.1631 21.5254V22.7629" stroke="#3D85CC" stroke-width="1.125" stroke-linecap="round" stroke-linejoin="round"/>
<path d="M18.75 12.0381V13.2756" stroke="#3D85CC" stroke-width="1.125" stroke-linecap="round" stroke-linejoin="round"/>
<path d="M16.1631 12.0381V13.2756" stroke="#3D85CC" stroke-width="1.125" stroke-linecap="round" stroke-linejoin="round"/>
</svg>
