<svg width="24" height="24" viewBox="0 0 24 24" fill="none" xmlns="http://www.w3.org/2000/svg">
<path d="M9 14.25H13.5" stroke="#3D85CC" stroke-width="1.125" stroke-linecap="round" stroke-linejoin="round"/>
<path d="M9 11.25H15" stroke="#3D85CC" stroke-width="1.125" stroke-linecap="round" stroke-linejoin="round"/>
<path d="M15.0002 3.75H18.75C18.9489 3.75 19.1397 3.82902 19.2803 3.96967C19.421 4.11032 19.5 4.30109 19.5 4.5V10.5M8.9998 3.75H5.25C5.05109 3.75 4.86032 3.82902 4.71967 3.96967C4.57902 4.11032 4.5 4.30109 4.5 4.5V20.25C4.5 20.4489 4.57902 20.6397 4.71967 20.7803C4.86032 20.921 5.05109 21 5.25 21H10.125" stroke="#3D85CC" stroke-width="1.125" stroke-linecap="round" stroke-linejoin="round"/>
<path d="M8.25 6.75V6C8.25 5.00544 8.64509 4.05161 9.34835 3.34835C10.0516 2.64509 11.0054 2.25 12 2.25C12.9946 2.25 13.9484 2.64509 14.6517 3.34835C15.3549 4.05161 15.75 5.00544 15.75 6V6.75H8.25Z" stroke="#3D85CC" stroke-width="1.125" stroke-linecap="round" stroke-linejoin="round"/>
<path d="M22.5234 21.4688H11.9766" stroke="#3D85CC" stroke-width="1.125" stroke-linecap="round" stroke-linejoin="round"/>
<path d="M15.7734 21.4688V15.1406H18.7266" stroke="#3D85CC" stroke-width="1.125" stroke-linecap="round" stroke-linejoin="round"/>
<path d="M21.6797 12.6094H18.7266V21.4688H21.6797V12.6094Z" stroke="#3D85CC" stroke-width="1.125" stroke-linecap="round" stroke-linejoin="round"/>
<path d="M12.8203 21.4688V17.6719H15.7734" stroke="#3D85CC" stroke-width="1.125" stroke-linecap="round" stroke-linejoin="round"/>
</svg>
