<svg width="24" height="24" viewBox="0 0 24 24" fill="none" xmlns="http://www.w3.org/2000/svg">
<path d="M9 14.25H10.5" stroke="#3D85CC" stroke-width="1.125" stroke-linecap="round" stroke-linejoin="round"/>
<path d="M9 11.25H13.5" stroke="#3D85CC" stroke-width="1.125" stroke-linecap="round" stroke-linejoin="round"/>
<path d="M15.0002 3.75H18.75C18.9489 3.75 19.1397 3.82902 19.2803 3.96967C19.421 4.11032 19.5 4.30109 19.5 4.5V10.6595M8.9998 3.75H5.25C5.05109 3.75 4.86032 3.82902 4.71967 3.96967C4.57902 4.11032 4.5 4.30109 4.5 4.5V20.25C4.5 20.4489 4.57902 20.6397 4.71967 20.7803C4.86032 20.921 5.05109 21 5.25 21H11.055" stroke="#3D85CC" stroke-width="1.125" stroke-linecap="round" stroke-linejoin="round"/>
<path d="M8.25 6.75V6C8.25 5.00544 8.64509 4.05161 9.34835 3.34835C10.0516 2.64509 11.0054 2.25 12 2.25C12.9946 2.25 13.9484 2.64509 14.6517 3.34835C15.3549 4.05161 15.75 5.00544 15.75 6V6.75H8.25Z" stroke="#3D85CC" stroke-width="1.125" stroke-linecap="round" stroke-linejoin="round"/>
<path d="M13.4636 15.9843C13.4629 15.484 13.5612 14.9885 13.7529 14.5263C13.9446 14.0642 14.2259 13.6445 14.5805 13.2916C14.9352 12.9386 15.3562 12.6594 15.8192 12.4699C16.2823 12.2804 16.7783 12.1845 17.2786 12.1876C19.3664 12.2031 21.0363 13.9384 21.0363 16.032V16.4062C21.0363 18.2949 21.4315 19.3909 21.7795 19.9899C21.817 20.054 21.8369 20.1267 21.8373 20.2009C21.8377 20.2751 21.8186 20.348 21.7818 20.4124C21.745 20.4768 21.6918 20.5304 21.6277 20.5677C21.5636 20.605 21.4908 20.6248 21.4166 20.625H13.0829C13.0087 20.6248 12.9358 20.605 12.8717 20.5677C12.8076 20.5304 12.7545 20.4768 12.7177 20.4124C12.6809 20.348 12.6617 20.275 12.6621 20.2008C12.6625 20.1266 12.6825 20.0539 12.72 19.9899C13.0682 19.3908 13.4636 18.2948 13.4636 16.4062L13.4636 15.9843Z" stroke="#3D85CC" stroke-width="1.125" stroke-linecap="round" stroke-linejoin="round"/>
<path d="M15.5625 20.625V21.0469C15.5625 21.4944 15.7403 21.9236 16.0568 22.2401C16.3732 22.5566 16.8024 22.7344 17.25 22.7344C17.6976 22.7344 18.1268 22.5566 18.4432 22.2401C18.7597 21.9236 18.9375 21.4944 18.9375 21.0469V20.625" stroke="#3D85CC" stroke-width="1.125" stroke-linecap="round" stroke-linejoin="round"/>
</svg>
