<svg width="80" height="80" viewBox="0 0 80 80" fill="none" xmlns="http://www.w3.org/2000/svg">
<path d="M19.5723 21.4463H12.541C10.1789 21.4463 7.91359 20.508 6.24335 18.8377C4.5731 17.1675 3.63477 14.9021 3.63477 12.54C3.63477 10.178 4.5731 7.91262 6.24335 6.24237C7.91359 4.57212 10.1789 3.63379 12.541 3.63379H30.9785C31.2686 3.63379 31.5468 3.74902 31.7519 3.95414C31.957 4.15926 32.0723 4.43746 32.0723 4.72754C32.0723 5.01762 31.957 5.29582 31.7519 5.50094C31.5468 5.70606 31.2686 5.82129 30.9785 5.82129H12.541C10.7591 5.82129 9.05015 6.52916 7.79014 7.78917C6.53013 9.04918 5.82227 10.7581 5.82227 12.54C5.82227 14.322 6.53013 16.0309 7.79014 17.2909C9.05015 18.5509 10.7591 19.2588 12.541 19.2588H19.5723C19.8623 19.2588 20.1405 19.374 20.3457 19.5791C20.5508 19.7843 20.666 20.0625 20.666 20.3525C20.666 20.6426 20.5508 20.9208 20.3457 21.1259C20.1405 21.3311 19.8623 21.4463 19.5723 21.4463Z" fill="#E20000"/>
<path d="M19.5723 17.9717H12.541C11.1735 17.9717 9.86198 17.4284 8.895 16.4614C7.92801 15.4945 7.38477 14.183 7.38477 12.8154C7.38477 11.4479 7.92801 10.1364 8.895 9.16941C9.86198 8.20243 11.1735 7.65918 12.541 7.65918H26.5641C26.8542 7.65918 27.1324 7.77441 27.3375 7.97953C27.5427 8.18465 27.6579 8.46285 27.6579 8.75293C27.6579 9.04301 27.5427 9.32121 27.3375 9.52633C27.1324 9.73145 26.8542 9.84668 26.5641 9.84668H12.541C11.7537 9.84668 10.9985 10.1595 10.4418 10.7162C9.88504 11.273 9.57227 12.0281 9.57227 12.8154C9.57227 13.6028 9.88504 14.3579 10.4418 14.9147C10.9985 15.4714 11.7537 15.7842 12.541 15.7842H19.5723C19.8623 15.7842 20.1405 15.8994 20.3457 16.1045C20.5508 16.3096 20.666 16.5878 20.666 16.8779C20.666 17.168 20.5508 17.4462 20.3457 17.6513C20.1405 17.8564 19.8623 17.9717 19.5723 17.9717Z" fill="#E20000"/>
<path d="M28.8728 41.1035C28.6399 41.1034 28.4131 41.0289 28.2256 40.8909C28.038 40.7528 27.8995 40.5583 27.8303 40.336C27.2982 38.3453 27.3201 36.2471 27.8939 34.2681C28.4677 32.289 29.5715 30.5044 31.086 29.1072C31.2979 28.9091 31.5798 28.8033 31.8697 28.8131C32.1597 28.8229 32.4338 28.9475 32.6319 29.1594C32.83 29.3713 32.9358 29.6532 32.926 29.9432C32.9162 30.2331 32.7916 30.5072 32.5797 30.7053C31.3651 31.8222 30.4763 33.2477 30.0079 34.8299C29.5396 36.412 29.5093 38.0917 29.9203 39.6897C30.0043 39.9669 29.975 40.2661 29.8391 40.5219C29.7031 40.7776 29.4715 40.9692 29.1947 41.0547C29.0904 41.0867 28.982 41.1031 28.8728 41.1035Z" fill="#F2371E"/>
<path d="M35.0191 42.2262C34.7945 42.226 34.5754 42.1568 34.3915 42.0279C34.2076 41.899 34.0677 41.7166 33.9909 41.5056C33.3669 39.5418 33.2914 37.4449 33.7724 35.4414C34.2534 33.4378 35.2728 31.6038 36.7203 30.1374C36.8201 30.0326 36.9397 29.9486 37.0722 29.8904C37.2047 29.8321 37.3474 29.8007 37.4921 29.798C37.6368 29.7953 37.7806 29.8214 37.9151 29.8747C38.0497 29.9279 38.1723 30.0074 38.276 30.1084C38.3796 30.2094 38.4622 30.33 38.5188 30.4632C38.5755 30.5963 38.6052 30.7394 38.6062 30.8842C38.6072 31.0289 38.5795 31.1723 38.5246 31.3063C38.4697 31.4402 38.3888 31.5619 38.2866 31.6643C37.133 32.8407 36.3166 34.3053 35.9227 35.9051C35.5287 37.5049 35.5717 39.1812 36.0472 40.7587C36.1068 40.9239 36.1258 41.1011 36.1027 41.2752C36.0795 41.4494 36.0147 41.6153 35.9139 41.7592C35.8131 41.9031 35.6792 42.0206 35.5235 42.1019C35.3677 42.1832 35.1947 42.2258 35.0191 42.2262Z" fill="#F2371E"/>
<path d="M41.5135 42.9338C41.3086 42.9341 41.1078 42.8767 40.934 42.7682C40.7603 42.6596 40.6206 42.5043 40.531 42.3201C39.7049 40.4324 39.4104 38.3549 39.6791 36.3121C39.9479 34.2692 40.7698 32.3386 42.056 30.7288C42.2357 30.5011 42.4985 30.354 42.7866 30.32C43.0747 30.286 43.3645 30.3679 43.5923 30.5476C43.82 30.7273 43.9671 30.9901 44.0011 31.2782C44.0351 31.5663 43.9532 31.8561 43.7735 32.0838C42.7416 33.3714 42.0782 34.9147 41.8541 36.5495C41.6301 38.1843 41.8536 39.8492 42.501 41.367C42.5805 41.5338 42.6165 41.7181 42.6056 41.9027C42.5948 42.0872 42.5374 42.266 42.4388 42.4224C42.3403 42.5788 42.2037 42.7077 42.0419 42.7971C41.8802 42.8865 41.6984 42.9336 41.5135 42.9338Z" fill="#F2371E"/>
<path d="M56.0888 63.201C55.3075 68.4354 50.8544 75.9354 38.8231 75.9354C39.5084 72.8236 40.8982 69.9104 42.8856 67.4198C38.1981 65.8573 37.9688 59.5286 37.9688 59.5286C45.7031 57.5754 53.5106 59.8417 56.0888 63.201Z" fill="#F2371E"/>
<path d="M76.3634 36.8999C76.3687 39.6939 75.919 42.4696 75.0327 45.114C74.7174 46.0523 74.3496 46.9714 73.9309 47.8668V47.8731C69.8025 56.7928 61.4156 62.4998 56.6559 65.1581C56.2951 65.3586 55.8893 65.4601 55.4783 65.4527C55.0673 65.4452 54.6653 65.3289 54.3119 65.1154C53.9584 64.9018 53.6656 64.5983 53.4624 64.2347C53.2591 63.8711 53.1524 63.4599 53.1526 63.0416C53.1576 62.4241 53.3895 61.8309 53.8025 61.3786C57.1139 57.7313 59.9302 52.9817 61.0257 48.6164C61.2052 47.9015 61.3396 47.1756 61.428 46.4432C61.4788 45.9598 61.5057 45.4741 61.5085 44.988C61.5029 42.1736 60.4015 39.4762 58.4455 37.4867C56.4894 35.4972 53.8383 34.3779 51.0729 34.3739H38.6752C33.8024 34.3742 29.0904 32.5989 25.3925 29.3693C21.6946 26.1398 19.2552 21.6694 18.5159 16.7676L18.1816 14.544H54.3967C59.8488 14.534 65.1075 16.5988 69.1402 20.333C69.4064 20.5723 69.6725 20.8306 69.9263 21.0889C70.2419 21.4101 70.5514 21.7503 70.8423 22.0904C74.4082 26.1688 76.3736 31.4407 76.3634 36.8999Z" fill="#FF8963"/>
<path d="M40.4674 32.1383H37.8799C36.6951 32.1388 35.5131 32.0241 34.3505 31.7958C34.2096 31.768 34.0755 31.7128 33.9559 31.6332C33.8364 31.5536 33.7336 31.4512 33.6536 31.3319C33.4921 31.091 33.4328 30.7957 33.4889 30.5111C33.5167 30.3702 33.572 30.2361 33.6516 30.1166C33.7312 29.997 33.8335 29.8943 33.9528 29.8143C34.1938 29.6527 34.489 29.5935 34.7736 29.6496C35.7968 29.8504 36.8371 29.9513 37.8799 29.9508H40.4674C40.7574 29.9508 41.0356 30.0661 41.2408 30.2712C41.4459 30.4763 41.5611 30.7545 41.5611 31.0446C41.5611 31.3346 41.4459 31.6128 41.2408 31.818C41.0356 32.0231 40.7574 32.1383 40.4674 32.1383Z" fill="#F2371E"/>
<path d="M74.592 45.4496C74.2737 46.3806 73.9022 47.2925 73.4795 48.1809V48.1871C71.2168 49.3244 68.7182 49.9131 66.1857 49.9059C64.2319 49.9009 62.2927 49.5692 60.4482 48.9246C60.6295 48.2153 60.7652 47.4951 60.8545 46.7684C60.9184 46.7792 60.9812 46.7959 61.042 46.8184C68.3732 49.3746 73.5107 45.6371 73.5607 45.5996C73.7061 45.4897 73.8768 45.4183 74.0571 45.3921C74.2374 45.3659 74.4214 45.3857 74.592 45.4496Z" fill="#F2371E"/>
<path d="M70.3621 22.61C69.2621 27.9725 65.4746 36.11 58.7996 38.9662C58.3441 38.3713 57.8266 37.8266 57.2559 37.3412C57.3643 37.222 57.4991 37.13 57.6496 37.0725C64.0496 34.5537 67.5621 26.3475 68.3559 21.4412C68.3893 21.2242 68.4899 21.0232 68.6434 20.8662C68.9121 21.1037 69.1809 21.36 69.4371 21.6162C69.7559 21.935 70.0684 22.2725 70.3621 22.61Z" fill="#F2371E"/>
<path d="M50.1065 34.7883H47.8628C47.8631 34.6694 47.8821 34.5513 47.919 34.4383C49.6565 29.3133 49.919 18.4695 49.3128 15.3195C49.3006 15.2514 49.2944 15.1824 49.294 15.1133H51.494C52.094 18.6883 51.8378 29.2633 50.1065 34.7883Z" fill="#F2371E"/>
<path d="M32.1836 21.956C33.2191 21.956 34.0586 21.1166 34.0586 20.0811C34.0586 19.0455 33.2191 18.2061 32.1836 18.2061C31.1481 18.2061 30.3086 19.0455 30.3086 20.0811C30.3086 21.1166 31.1481 21.956 32.1836 21.956Z" fill="#3D85CC"/>
</svg>
