<svg width="80" height="80" viewBox="0 0 80 80" fill="none" xmlns="http://www.w3.org/2000/svg">
<path d="M19.9974 74.9995C19.5451 74.999 19.1014 74.8759 18.7136 74.6432C18.3258 74.4104 18.0084 74.0769 17.7952 73.678C17.582 73.2791 17.481 72.8299 17.5029 72.3782C17.5249 71.9264 17.669 71.4891 17.9199 71.1128L27.9199 56.1128C28.1005 55.8363 28.3342 55.5984 28.6073 55.4128C28.8804 55.2272 29.1876 55.0975 29.5111 55.0313C29.8347 54.965 30.1681 54.9636 30.4922 55.0269C30.8163 55.0903 31.1246 55.2172 31.3994 55.4004C31.6742 55.5836 31.9099 55.8194 32.093 56.0942C32.2761 56.369 32.403 56.6774 32.4663 57.0015C32.5295 57.3256 32.528 57.659 32.4616 57.9825C32.3953 58.306 32.2656 58.6132 32.0799 58.8863L22.0799 73.8863C21.8515 74.2292 21.5419 74.5104 21.1785 74.7046C20.8152 74.8989 20.4094 75.0002 19.9974 74.9995Z" fill="#2965ED"/>
<path d="M60.0045 74.9995C59.5924 75.0003 59.1866 74.899 58.8232 74.7048C58.4598 74.5105 58.1502 74.2293 57.922 73.8863L47.922 58.8863C47.7363 58.6132 47.6065 58.306 47.5402 57.9825C47.4739 57.659 47.4723 57.3256 47.5356 57.0015C47.5988 56.6774 47.7257 56.369 47.9088 56.0942C48.0919 55.8194 48.3277 55.5836 48.6024 55.4004C48.8772 55.2172 49.1855 55.0903 49.5096 55.0269C49.8337 54.9636 50.1672 54.965 50.4907 55.0313C50.8142 55.0975 51.1214 55.2272 51.3945 55.4128C51.6677 55.5984 51.9013 55.8363 52.082 56.1128L62.082 71.1128C62.3328 71.4891 62.4769 71.9264 62.4989 72.3782C62.5208 72.8299 62.4198 73.2791 62.2066 73.678C61.9934 74.0769 61.676 74.4104 61.2882 74.6432C60.9004 74.8759 60.4567 74.999 60.0045 74.9995Z" fill="#2965ED"/>
<path d="M40 75C39.337 75 38.7011 74.7366 38.2322 74.2678C37.7634 73.7989 37.5 73.163 37.5 72.5V57.5C37.5 56.837 37.7634 56.2011 38.2322 55.7322C38.7011 55.2634 39.337 55 40 55C40.663 55 41.2989 55.2634 41.7678 55.7322C42.2366 56.2011 42.5 56.837 42.5 57.5V72.5C42.5 73.163 42.2366 73.7989 41.7678 74.2678C41.2989 74.7366 40.663 75 40 75Z" fill="#2965ED"/>
<path d="M67.5 15H12.5C11.1193 15 10 16.1193 10 17.5V57.5C10 58.8807 11.1193 60 12.5 60H67.5C68.8807 60 70 58.8807 70 57.5V17.5C70 16.1193 68.8807 15 67.5 15Z" fill="#E6ECFF"/>
<path d="M70 17.5V57.5C69.9981 58.1625 69.7341 58.7972 69.2657 59.2657C68.7972 59.7341 68.1625 59.9981 67.5 60H12.5C11.8375 59.9981 11.2028 59.7341 10.7343 59.2657C10.2659 58.7972 10.0019 58.1625 10 57.5V48.375C43.8 45.675 59.225 30.575 66.025 15H67.5C68.1625 15.0019 68.7972 15.2659 69.2657 15.7343C69.7341 16.2028 69.9981 16.8375 70 17.5Z" fill="#B7C6E2"/>
<path d="M40 50C39.337 50 38.7011 49.7366 38.2322 49.2678C37.7634 48.7989 37.5 48.163 37.5 47.5V35C37.5 34.337 37.7634 33.7011 38.2322 33.2322C38.7011 32.7634 39.337 32.5 40 32.5C40.663 32.5 41.2989 32.7634 41.7678 33.2322C42.2366 33.7011 42.5 34.337 42.5 35V47.5C42.5 48.163 42.2366 48.7989 41.7678 49.2678C41.2989 49.7366 40.663 50 40 50Z" fill="#4294FF"/>
<path d="M27.5 50C26.837 50 26.2011 49.7366 25.7322 49.2678C25.2634 48.7989 25 48.163 25 47.5V40C25 39.337 25.2634 38.7011 25.7322 38.2322C26.2011 37.7634 26.837 37.5 27.5 37.5C28.163 37.5 28.7989 37.7634 29.2678 38.2322C29.7366 38.7011 30 39.337 30 40V47.5C30 48.163 29.7366 48.7989 29.2678 49.2678C28.7989 49.7366 28.163 50 27.5 50Z" fill="#4294FF"/>
<path d="M52.5 50C51.837 50 51.2011 49.7366 50.7322 49.2678C50.2634 48.7989 50 48.163 50 47.5V27.5C50 26.837 50.2634 26.2011 50.7322 25.7322C51.2011 25.2634 51.837 25 52.5 25C53.163 25 53.7989 25.2634 54.2678 25.7322C54.7366 26.2011 55 26.837 55 27.5V47.5C55 48.163 54.7366 48.7989 54.2678 49.2678C53.7989 49.7366 53.163 50 52.5 50Z" fill="#4294FF"/>
<path d="M70 5H10C7.23858 5 5 7.23858 5 10V15C5 17.7614 7.23858 20 10 20H70C72.7614 20 75 17.7614 75 15V10C75 7.23858 72.7614 5 70 5Z" fill="#4294FF"/>
<path d="M74.9985 10V15C74.9946 16.3249 74.4666 17.5944 73.5298 18.5312C72.5929 19.4681 71.3234 19.9961 69.9985 20H63.4985C66.1573 15.3116 68.1116 10.2575 69.2985 5H69.9985C71.3234 5.00389 72.5929 5.53192 73.5298 6.46876C74.4666 7.4056 74.9946 8.67511 74.9985 10Z" fill="#2965ED"/>
<path d="M55 30.9482V47.4982C55 48.1613 54.7366 48.7972 54.2678 49.266C53.7989 49.7349 53.163 49.9982 52.5 49.9982C51.837 49.9982 51.2011 49.7349 50.7322 49.266C50.2634 48.7972 50 48.1613 50 47.4982V35.1982C51.7536 33.8871 53.4235 32.4677 55 30.9482Z" fill="#2965ED"/>
<path d="M42.5 39.873V47.498C42.5 48.1611 42.2366 48.797 41.7678 49.2658C41.2989 49.7347 40.663 49.998 40 49.998C39.337 49.998 38.7011 49.7347 38.2322 49.2658C37.7634 48.797 37.5 48.1611 37.5 47.498V42.198C39.25 41.473 40.925 40.698 42.5 39.873Z" fill="#2965ED"/>
<path d="M30 44.8252V47.5002C30 48.1632 29.7366 48.7991 29.2678 49.268C28.7989 49.7368 28.163 50.0002 27.5 50.0002C26.837 50.0002 26.2011 49.7368 25.7322 49.268C25.2634 48.7991 25 48.1632 25 47.5002V46.1252C26.725 45.7502 28.4 45.3252 30 44.8252Z" fill="#2965ED"/>
</svg>
