<svg width="80" height="80" viewBox="0 0 80 80" fill="none" xmlns="http://www.w3.org/2000/svg">
<path d="M75 32.801V67.501C74.9942 69.4883 74.2022 71.3926 72.7969 72.7979C71.3916 74.2031 69.4873 74.9952 67.5 75.001H12.5C10.5127 74.9952 8.60838 74.2031 7.20311 72.7979C5.79784 71.3926 5.00581 69.4883 5 67.501V32.801C4.99934 31.5205 5.32493 30.261 5.94605 29.1412C6.56717 28.0214 7.46334 27.0784 8.55 26.401L16.325 22.276C16.7047 22.0675 17.1323 21.9621 17.5654 21.9702C17.9984 21.9782 18.4218 22.0995 18.7935 22.322C19.1651 22.5445 19.472 22.8604 19.6837 23.2383C19.8954 23.6162 20.0044 24.0429 20 24.476V38.876L34.925 46.926L40 49.651L45.075 46.926L60 38.876V24.476C59.9956 24.0429 60.1046 23.6162 60.3163 23.2383C60.528 22.8604 60.8349 22.5445 61.2065 22.322C61.5782 22.0995 62.0016 21.9782 62.4346 21.9702C62.8677 21.9621 63.2953 22.0675 63.675 22.276L71.3 26.326C72.4236 26.9937 73.355 27.941 74.0034 29.0758C74.6519 30.2106 74.9952 31.494 75 32.801Z" fill="#4294FF"/>
<path d="M75 32.801V36.501L41.175 54.701C40.8147 54.8979 40.4106 55.0011 40 55.0011C39.5894 55.0011 39.1853 54.8979 38.825 54.701L5 36.501V32.801C4.99934 31.5205 5.32493 30.261 5.94605 29.1412C6.56717 28.0214 7.46334 27.0784 8.55 26.401L16.325 22.276C16.7047 22.0675 17.1323 21.9621 17.5654 21.9702C17.9984 21.9782 18.4218 22.0995 18.7935 22.322C19.1651 22.5445 19.472 22.8604 19.6837 23.2383C19.8954 23.6162 20.0044 24.0429 20 24.476V38.876L40 49.651L60 38.876V24.476C59.9956 24.0429 60.1046 23.6162 60.3163 23.2383C60.528 22.8604 60.8349 22.5445 61.2065 22.322C61.5782 22.0995 62.0016 21.9782 62.4346 21.9702C62.8677 21.9621 63.2953 22.0675 63.675 22.276L71.3 26.326C72.4236 26.9937 73.355 27.941 74.0034 29.0758C74.6519 30.2106 74.9952 31.494 75 32.801Z" fill="#376CFB"/>
<path d="M64.475 74.9986H12.5C10.5127 74.9928 8.60841 74.2008 7.20314 72.7955C5.79787 71.3903 5.00583 69.486 5.00003 67.4986V32.7986C4.99685 31.6487 5.25914 30.5135 5.76648 29.4815C6.27381 28.4494 7.0125 27.5484 7.92503 26.8486C10.125 43.0986 20.425 70.7486 64.475 74.9986Z" fill="#2965ED"/>
<path d="M75 66.1976V67.4976C74.9942 69.4849 74.2022 71.3892 72.7969 72.7945C71.3916 74.1997 69.4873 74.9918 67.5 74.9976H12.5C10.5127 74.9918 8.60838 74.1997 7.20311 72.7945C5.79784 71.3892 5.0058 69.4849 5 67.4976V66.1976L32.3 47.0726C32.6824 46.8108 33.129 46.6585 33.5916 46.6321C34.0542 46.6056 34.5153 46.7061 34.925 46.9226L40 49.6476L45.075 46.9226C45.4847 46.7061 45.9458 46.6056 46.4084 46.6321C46.871 46.6585 47.3176 46.8108 47.7 47.0726L75 66.1976Z" fill="#376CFB"/>
<path d="M11.2 39.8236L5.00003 36.4986V32.7986C4.99685 31.6487 5.25914 30.5135 5.76648 29.4815C6.27381 28.4494 7.0125 27.5484 7.92503 26.8486C8.51867 31.2843 9.61747 35.6376 11.2 39.8236Z" fill="#2045CE"/>
<path d="M64.475 74.9961H12.5C10.5127 74.9903 8.60838 74.1982 7.20311 72.793C5.79784 71.3877 5.0058 69.4834 5 67.4961V66.1961L20.475 55.3711C28.825 64.8711 42.425 72.8711 64.475 74.9961Z" fill="#2045CE"/>
<path d="M62.5 5H17.5C16.837 5 16.2011 5.26339 15.7322 5.73223C15.2634 6.20107 15 6.83696 15 7.5V41.8673L38.8148 54.6998C39.1787 54.8968 39.5861 55 40 55C40.4139 55 40.8213 54.8968 41.1852 54.6998L65 41.8673V7.5C65 6.83696 64.7366 6.20107 64.2678 5.73223C63.7989 5.26339 63.163 5 62.5 5Z" fill="#E6ECFF"/>
<path d="M48.65 50.675L41.175 54.7C40.8147 54.8969 40.4106 55.0001 40 55.0001C39.5894 55.0001 39.1853 54.8969 38.825 54.7L15 41.875V7.5C15.0019 6.83755 15.2659 6.20277 15.7343 5.73435C16.2028 5.26592 16.8375 5.00191 17.5 5H26.575C27.75 19.325 32.9 39.075 48.65 50.675Z" fill="#B7C6E2"/>
<path d="M52.5 20H27.5C26.837 20 26.2011 19.7366 25.7322 19.2678C25.2634 18.7989 25 18.163 25 17.5C25 16.837 25.2634 16.2011 25.7322 15.7322C26.2011 15.2634 26.837 15 27.5 15H52.5C53.163 15 53.7989 15.2634 54.2678 15.7322C54.7366 16.2011 55 16.837 55 17.5C55 18.163 54.7366 18.7989 54.2678 19.2678C53.7989 19.7366 53.163 20 52.5 20Z" fill="#4294FF"/>
<path d="M52.5 30H27.5C26.837 30 26.2011 29.7366 25.7322 29.2678C25.2634 28.7989 25 28.163 25 27.5C25 26.837 25.2634 26.2011 25.7322 25.7322C26.2011 25.2634 26.837 25 27.5 25H52.5C53.163 25 53.7989 25.2634 54.2678 25.7322C54.7366 26.2011 55 26.837 55 27.5C55 28.163 54.7366 28.7989 54.2678 29.2678C53.7989 29.7366 53.163 30 52.5 30Z" fill="#4294FF"/>
<path d="M52.5 40H27.5C26.837 40 26.2011 39.7366 25.7322 39.2678C25.2634 38.7989 25 38.163 25 37.5C25 36.837 25.2634 36.2011 25.7322 35.7322C26.2011 35.2634 26.837 35 27.5 35H52.5C53.163 35 53.7989 35.2634 54.2678 35.7322C54.7366 36.2011 55 36.837 55 37.5C55 38.163 54.7366 38.7989 54.2678 39.2678C53.7989 39.7366 53.163 40 52.5 40Z" fill="#4294FF"/>
<path d="M29.15 20H27.5C26.837 20 26.2011 19.7366 25.7322 19.2678C25.2634 18.7989 25 18.163 25 17.5C25 16.837 25.2634 16.2011 25.7322 15.7322C26.2011 15.2634 26.837 15 27.5 15H27.975C28.3 16.65 28.7 18.325 29.15 20Z" fill="#2965ED"/>
<path d="M32.65 30H27.5C26.837 30 26.2011 29.7366 25.7322 29.2678C25.2634 28.7989 25 28.163 25 27.5C25 26.837 25.2634 26.2011 25.7322 25.7322C26.2011 25.2634 26.837 25 27.5 25H30.7C31.2585 26.7009 31.9095 28.3701 32.65 30Z" fill="#2965ED"/>
<path d="M38.25 40H27.5C26.837 40 26.2011 39.7366 25.7322 39.2678C25.2634 38.7989 25 38.163 25 37.5C25 36.837 25.2634 36.2011 25.7322 35.7322C26.2011 35.2634 26.837 35 27.5 35H35.1C36.0608 36.7212 37.1122 38.3903 38.25 40Z" fill="#2965ED"/>
<g clip-path="url(#clip0)">
<path d="M74.9867 80.001H38.346C35.5818 80.001 33.333 77.7521 33.333 74.988V51.29C33.333 50.535 33.9451 49.9229 34.7002 49.9229H78.6325C79.3875 49.9229 79.9997 50.535 79.9997 51.29V74.988C79.9997 77.7521 77.7508 80.001 74.9867 80.001Z" fill="#F5F5FF"/>
<path d="M78.6327 49.9229H56.6665V80.001H74.9868C77.751 80.001 79.9998 77.7521 79.9998 74.988V51.29C79.9998 50.535 79.3877 49.9229 78.6327 49.9229Z" fill="#E2E7FA"/>
<path d="M74.9867 38.8027H38.346C35.5818 38.8027 33.333 41.0516 33.333 43.8158V51.2897H79.9997V43.8158C79.9997 41.0516 77.7508 38.8027 74.9867 38.8027Z" fill="#EF5CA2"/>
<path d="M74.9868 38.8027H56.6665V51.2897H79.9998V43.8158C79.9998 41.0516 77.751 38.8027 74.9868 38.8027Z" fill="#EA1C81"/>
<path d="M67.604 33.334C66.0938 33.334 64.8696 34.5582 64.8696 36.0684V44.2715C64.8696 45.7817 66.0938 47.0059 67.604 47.0059C69.1142 47.0059 70.3384 45.7817 70.3384 44.2715V36.0684C70.3384 34.5582 69.1142 33.334 67.604 33.334Z" fill="#FFC178"/>
<path d="M45.729 47.0059C44.2188 47.0059 42.9946 45.7817 42.9946 44.2715V36.0684C42.9946 34.5582 44.2188 33.334 45.729 33.334C47.2392 33.334 48.4634 34.5582 48.4634 36.0684V44.2715C48.4634 45.7817 47.2392 47.0059 45.729 47.0059Z" fill="#FFFA8C"/>
<path d="M65.2062 53.333H61.4604C60.6539 53.333 60 53.9726 60 54.7616C60 55.5505 60.6539 56.1902 61.4604 56.1902H63.7458V71.9044C63.7458 72.6934 64.3997 73.333 65.2062 73.333C66.0128 73.333 66.6667 72.6934 66.6667 71.9044V54.7616C66.6667 53.9726 66.0129 53.333 65.2062 53.333Z" fill="#453D81"/>
<path d="M56.6668 59.0473C56.6668 55.8964 53.6762 53.333 50.0002 53.333C46.8216 53.333 44.0705 55.2711 43.4586 57.9413C43.2812 58.7155 43.8696 59.4663 44.7728 59.6184C45.6751 59.7704 46.5519 59.2662 46.7294 58.492C47.0351 57.1582 48.4106 56.1902 50.0002 56.1902C51.8382 56.1902 53.3335 57.4719 53.3335 59.0473C53.3335 60.6227 51.8382 61.9044 50.0002 61.9044C49.0797 61.9044 48.3335 62.5441 48.3335 63.333C48.3335 64.122 49.0797 64.7616 50.0002 64.7616C51.8382 64.7616 53.3335 66.0433 53.3335 67.6187C53.3335 69.1942 51.8382 70.4759 50.0002 70.4759C48.3462 70.4759 46.9271 69.4197 46.6991 68.0191C46.6777 67.8879 46.6668 67.7532 46.6668 67.6187C46.6668 66.8298 45.9206 66.1902 45.0002 66.1902C44.0797 66.1902 43.3335 66.8298 43.3335 67.6187C43.3335 67.8847 43.3551 68.1523 43.3976 68.414C43.8542 71.2182 46.6926 73.333 50.0002 73.333C53.6762 73.333 56.6668 70.7696 56.6668 67.6187C56.6668 65.9132 55.7895 64.3809 54.4027 63.333C55.7895 62.2851 56.6668 60.7528 56.6668 59.0473Z" fill="#6B61B1"/>
</g>
<defs>
<clipPath id="clip0">
<rect width="46.6667" height="46.6667" fill="white" transform="translate(33.3335 33.333)"/>
</clipPath>
</defs>
</svg>
