<svg width="24" height="25" viewBox="0 0 24 25" fill="none" xmlns="http://www.w3.org/2000/svg">
<path d="M4.5 4.35742L19.5 20.8574" stroke="#6F7780" stroke-width="1.125" stroke-linecap="round" stroke-linejoin="round"/>
<path d="M14.5223 15.3821C13.7864 16.051 12.8149 16.4002 11.8215 16.3529C10.8281 16.3055 9.89422 15.8655 9.22524 15.1296C8.55626 14.3938 8.20698 13.4223 8.25424 12.4289C8.3015 11.4355 8.74142 10.5016 9.47724 9.83252" stroke="#6F7780" stroke-width="1.125" stroke-linecap="round" stroke-linejoin="round"/>
<path d="M6.93698 7.03809C3.11486 8.97361 1.5 12.6074 1.5 12.6074C1.5 12.6074 4.5 19.3567 12 19.3567C13.7572 19.3707 15.4926 18.966 17.0623 18.176" stroke="#6F7780" stroke-width="1.125" stroke-linecap="round" stroke-linejoin="round"/>
<path d="M19.5566 16.4603C21.6006 14.6296 22.4995 12.6072 22.4995 12.6072C22.4995 12.6072 19.4995 5.85646 11.9995 5.85646C11.3499 5.8554 10.7014 5.90821 10.0605 6.01435" stroke="#6F7780" stroke-width="1.125" stroke-linecap="round" stroke-linejoin="round"/>
<path d="M12.707 8.92383C13.5041 9.07688 14.23 9.48422 14.7759 10.0848C15.3219 10.6853 15.6584 11.4467 15.735 12.2546" stroke="#6F7780" stroke-width="1.125" stroke-linecap="round" stroke-linejoin="round"/>
</svg>
