<svg width="149" height="150" viewBox="0 0 149 150" fill="none" xmlns="http://www.w3.org/2000/svg">
<path d="M108.69 20.6677L109.693 13.5347L111.817 14.0017L109.734 20.8974L108.69 20.6677Z" fill="#FFAF4E" stroke="#DB7800" stroke-width="0.845977"/>
<path d="M104.831 21.3661L102.134 14.687L104.206 14.0298L105.85 21.0429L104.831 21.3661Z" fill="#FFAF4E" stroke="#DB7800" stroke-width="0.845977"/>
<path d="M112.648 22.4094L117.083 16.7336L118.689 18.1998L113.437 23.1305L112.648 22.4094Z" fill="#FFAF4E" stroke="#DB7800" stroke-width="0.845977"/>
<g filter="url(#filter0_f)">
<ellipse cx="75.1843" cy="133.007" rx="28.3402" ry="6.76782" transform="rotate(-2.09865 75.1843 133.007)" fill="#FFA1A1"/>
</g>
<circle cx="20.8125" cy="41.0273" r="2.96092" fill="url(#paint0_linear)"/>
<path d="M115.516 36.1687C115.201 35.6014 114.59 34.8674 113.428 34.426C113.069 33.3389 112.455 31.2383 112.269 29.0886C112.113 27.261 111.883 25.6736 110.669 24.7582C110.116 24.343 109.443 24.1402 108.609 24.1402C108.019 24.1402 107.416 24.2367 106.693 24.3822C105.141 24.6928 103.889 25.7979 103.262 27.4146C102.382 29.6837 102.814 32.6082 104.435 35.5524C102.697 36.2815 100.879 37.3391 100.479 38.678C99.9896 40.3144 100.751 42.3987 101.561 43.9811C101.062 45.096 100.4 47.5808 102.371 50.6427C102.134 51.9603 101.89 54.4908 103.011 56.2972C102.956 56.7092 102.881 57.1391 102.786 57.592C101.6 56.2335 100.291 54.96 98.8815 53.7944C96.6765 51.9684 94.4585 50.4416 92.1248 49.142C92.9706 47.6217 93.5948 45.879 93.9419 44.0498C94.6345 40.4206 94.0918 37.0874 92.4915 35.1322C91.5544 33.9879 90.3289 33.3782 88.9372 33.3651H88.9078C86.9278 33.3651 84.9005 34.668 83.2936 36.919C83.1274 36.6199 82.9432 36.3436 82.7379 36.0935C81.9116 35.0848 80.8312 34.547 79.6057 34.5388H79.5812C76.5451 34.5388 73.5661 38.0192 72.5051 42.7273C70.1731 42.1829 68.1262 41.6696 65.993 41.0337C60.3934 39.3597 56.373 35.8319 53.9888 33.1689C51.3715 30.246 50.115 27.7498 50.0661 27.6517L47.7129 22.8226C47.5744 22.5349 47.2859 22.3633 46.9812 22.3633C46.9046 22.3633 46.8263 22.3747 46.7497 22.3976C46.3684 22.5104 46.1239 22.8848 46.1728 23.282L46.828 28.6145C48.4544 41.8347 54.2381 49.6455 54.4809 49.9692L56.4398 52.5913C56.5979 52.8022 56.8407 52.9182 57.0917 52.9182C57.1911 52.9182 57.2921 52.9002 57.3899 52.861C57.7321 52.7253 57.9407 52.3788 57.9016 52.0126L57.7843 50.9271L61.9286 58.0726C62.0769 58.3276 62.3474 58.4796 62.6326 58.4796C62.688 58.4796 62.7434 58.4747 62.7988 58.4633C63.1427 58.3913 63.4018 58.1085 63.4425 57.7587L63.5696 56.683C65.1749 59.1875 67.0963 62.7496 68.7162 67.371C69.1301 68.5529 69.4674 69.8002 69.7233 71.0916C66.6302 69.3457 63.467 67.3922 62.5902 66.4081C61.7558 65.4747 61.0241 63.7222 60.3168 62.027C59.6242 60.371 58.9707 58.8082 58.1184 57.7097C57.3035 56.6585 56.3094 55.8902 55.3463 55.1464L55.33 55.1349C54.2577 54.3061 53.1479 53.4495 52.3102 52.1908C51.7219 51.3047 51.6225 50.4105 51.528 49.5474C51.4155 48.5273 51.1531 46.139 48.5277 46.139C47.2158 46.139 46.0278 46.819 45.1787 48.0565C43.9956 49.7828 43.7365 52.2169 44.5171 54.2587C45.2293 56.1256 46.2397 57.4792 46.9225 58.254C46.8997 58.3815 46.8752 58.5205 46.8524 58.6692C45.9349 59.1629 44.0852 60.1242 42.995 60.4658C42.6951 60.5606 42.1932 60.6718 41.6114 60.7993L41.4647 60.832C38.854 61.4025 34.9085 62.2657 33.0686 64.6017C31.9441 66.0256 31.9588 67.2729 32.1707 68.069C32.3401 68.7098 32.6726 69.2231 33.0458 69.6253C31.9148 70.4917 31.2189 71.296 30.9256 72.0676C30.4155 73.4097 30.5801 74.7813 31.3917 75.9305C32.3825 77.3364 34.1328 78.0949 35.2752 78.0949H35.342C35.4202 78.0932 35.4985 78.0867 35.5751 78.0785C35.1937 78.654 34.8629 79.5073 34.506 80.7562C34.1426 82.0379 33.7498 83.7576 33.3375 85.8664C33.2316 86.4075 33.1257 86.9699 33.0165 87.5617L27.2604 75.2668C27.1252 74.9791 26.8367 74.7976 26.5238 74.7976C26.5026 74.7976 26.4798 74.7992 26.4586 74.8009C26.1197 74.8287 25.8345 75.0624 25.74 75.3894L25.0816 77.6878C24.987 78.0131 22.7902 85.7406 23.7012 94.9556C24.239 100.398 25.7677 105.183 28.2464 109.179C31.1831 113.914 35.4463 117.52 40.9237 119.902C41.129 121.443 41.9406 122.756 43.2932 123.721C46.696 126.146 53.4608 127.667 58.2341 127.786C58.7425 128.358 59.339 128.791 60.0121 129.078C61.1789 129.575 63.2062 129.859 65.5741 129.859C68.3055 129.859 77.7723 129.375 86.0706 123.217C86.6247 123.343 87.213 123.407 87.8241 123.407C90.8439 123.407 95.6906 121.841 101.629 114.378C107.431 107.085 110.116 99.1127 110.773 96.9516C111.373 96.5544 111.684 96.2797 111.746 96.2242L112.023 95.9806C112.188 95.8351 112.287 95.6291 112.299 95.4084L112.318 95.0275C112.817 85.17 112.007 77.0977 109.841 70.3625C110.97 67.2778 112.724 62.8231 114.15 59.8659C115.423 58.988 116.467 57.623 117.254 55.8068C120.269 48.8297 117.385 39.5657 115.516 36.1687ZM60.954 99.7715L60.5368 100.036C60.3005 100.187 60.1571 100.447 60.1571 100.728V101.223C60.1571 101.367 60.1701 102.062 60.4064 103.141C59.3423 104.012 57.0346 105.567 53.2929 106.453L52.949 106.534C52.7486 106.582 52.5726 106.704 52.4585 106.876L52.2678 107.164C52.2499 107.19 52.1896 107.28 52.1065 107.438C51.8604 107.445 51.5654 107.452 51.2379 107.452C50.102 107.452 48.3876 107.386 46.6666 107.072C46.4711 107.038 46.2771 107.01 46.0881 106.989C45.961 104.265 45.5536 98.6501 44.2547 92.4937C43.4301 88.5866 42.5517 85.206 41.714 82.7196C41.4582 81.9578 41.2072 81.2826 40.9595 80.6876C41.085 80.7203 41.2154 80.7464 41.3474 80.7677C41.5609 80.8004 41.7792 80.8151 41.996 80.8151C43.36 80.8151 44.8447 80.1726 45.5291 79.2817C45.653 79.1182 45.7785 78.9302 45.9512 78.6638C46.5232 77.7875 47.589 76.1561 48.8406 75.9207C49.2888 75.8357 50.0319 75.8111 50.819 75.7834L51.2053 75.7703C52.7062 75.7229 54.5755 75.664 56.3779 75.0837C56.8293 74.9366 57.2432 74.7551 57.6132 74.5393C61.6711 75.5774 67.7921 79.3978 70.1535 80.9361C69.7787 85.0245 68.8791 87.8608 68.871 87.8853L68.7683 88.1959C68.708 88.379 68.7145 88.5768 68.7846 88.7567L68.9019 89.0509C68.9264 89.1163 69.1366 89.6427 69.6418 90.447C68.752 92.1847 66.1722 96.453 60.954 99.7715ZM38.0505 77.0748C37.9968 77.0601 37.943 77.047 37.8892 77.0372C37.9397 77.0061 37.9902 76.9751 38.0408 76.9424C38.044 76.9865 38.0473 77.0307 38.0505 77.0748Z" fill="black"/>
<path d="M27.019 80.9032C27.019 80.9032 27.9772 90.3847 31.4484 96.2289C31.4484 96.2289 29.7193 89.4644 29.1245 85.4004L34.2466 96.3401L34.6833 93.3976C35.5079 87.8411 36.784 81.4509 37.5711 79.8047C37.5711 79.8047 38.2491 92.8466 38.2491 93.2226C38.2491 93.5202 38.8749 86.4891 39.0329 82.9483C39.8021 85.116 40.7278 88.4002 41.704 93.033C43.1528 99.9104 43.4608 106.121 43.5243 108.109C43.2538 108.221 43.0142 108.357 42.8056 108.504L36.7889 99.3578C37.6901 103.634 40.4035 107.986 41.6437 109.778C40.9527 110.971 40.7734 112.602 41.158 114.406C41.1825 114.52 41.2118 114.633 41.2444 114.744C34.9506 109.552 29.8024 100.986 29.8024 100.986C32.2616 109.313 37.2175 114.294 40.2226 116.675C32.0155 112.472 27.3351 105.106 26.2986 94.7397C25.7315 89.0704 26.4502 83.8507 27.019 80.9032Z" fill="#F23434"/>
<path d="M57.1023 122.263C57.1447 122.917 57.2718 124.024 57.6613 125.134C53.3622 124.911 47.5524 123.537 44.7999 121.577C43.7797 120.849 43.356 119.89 43.5059 118.645C43.5434 118.323 43.6167 118.021 43.7015 117.758C46.4687 119.61 51.092 120.646 56.0463 121.581C56.3836 121.848 56.7356 122.074 57.1023 122.263Z" fill="#F23434"/>
<path d="M52.8378 116.507C53.2257 117.637 53.6608 118.583 54.1432 119.376C49.8457 118.495 45.7243 117.377 43.8746 115.613C46.1105 116.963 50.3574 117.092 50.3574 117.092C46.6352 116.445 43.2048 114.487 42.7664 113.022C42.7648 113.02 42.7648 113.019 42.7648 113.019C42.6768 111.824 42.9375 110.839 43.5177 110.238C44.2559 109.474 45.3853 109.491 46.2017 109.64C48.5208 110.063 50.7746 110.087 52.111 110.05C51.8665 111.541 51.8779 113.705 52.8378 116.507Z" fill="#F23434"/>
<path d="M70.0746 117.515C61.672 120.101 55.973 118.898 54.7524 116.531H54.7507C54.6774 116.338 54.6041 116.137 54.5324 115.928C53.1879 112.004 53.9392 109.668 54.2863 108.9C58.1502 107.919 60.6322 106.312 61.9213 105.277C62.9594 107.852 65.1318 111.288 69.6753 114.479C71.8265 115.99 73.9451 117.02 76.0131 117.562C70.4413 120.574 64.4815 121.414 61.8675 121.414C60.0928 121.414 58.4501 121.268 57.0437 120.083C61.3607 122.001 69.8578 117.628 70.0746 117.515Z" fill="#F23434"/>
<path d="M79.6138 118.015C80.2852 118.659 82.1039 120.333 84.0253 121.459C74.8063 127.996 63.4996 127.712 61.0257 126.659C59.7155 126.102 59.1663 124.299 58.9707 122.934C59.8719 123.136 60.8383 123.21 61.8683 123.21C64.95 123.21 72.4041 122.116 78.7957 118C79.0076 118.011 79.2162 118.016 79.4264 118.016C79.4883 118.016 79.5519 118.016 79.6138 118.015Z" fill="#F23434"/>
<path d="M107.792 97.6367C106.693 100.772 104.136 107.019 99.5862 112.738C93.7161 120.118 88.7505 121.576 86.0615 120.481C84.6518 119.907 83.0792 118.689 81.9873 117.747C84.7838 117.151 87.4842 115.575 90.227 112.948C95.1844 108.197 97.9207 103.255 99.5683 99.8044C103.188 99.3761 105.9 98.4868 107.792 97.6367Z" fill="#F23434"/>
<path d="M69.8178 112.352V112.353C65.9751 109.414 64.2248 106.377 63.4295 104.217C63.0123 103.086 62.8559 102.195 62.7988 101.685C67.9763 98.2571 70.6832 94.059 71.8044 91.9453C74.275 94.7129 79.2911 98.4483 88.8573 99.6613C91.0753 99.9425 93.1108 100.062 94.9735 100.062C95.847 100.062 96.6831 100.036 97.48 99.9866C95.8584 103.227 93.295 107.518 88.9894 111.642C86.007 114.498 83.0313 116.009 79.9479 116.18C87.2163 114.139 91.8641 103.782 92.0434 103.374C91.8934 103.64 89.4245 107.964 84.1851 110.956C78.7762 114.045 74.319 115.07 69.8178 112.352Z" fill="#F23434"/>
<path d="M46.0574 62.0039C45.3892 63.0142 44.4375 64.6538 44.0219 66.3294L35.4645 68.2437C35.1776 68.0704 34.7865 67.7664 34.6871 67.3937C34.604 67.0749 34.7458 66.6809 35.1108 66.2183C36.3722 64.6179 39.907 63.8446 42.019 63.382C42.7247 63.2283 43.3342 63.0943 43.7726 62.957C44.4293 62.751 45.2572 62.3881 46.0574 62.0039Z" fill="#FF4D4D"/>
<path d="M71.0353 74.7914C71.1282 76.0469 71.1477 77.2615 71.1168 78.4156C68.5761 76.7204 62.957 73.1796 58.7492 72.0974C58.7492 72.0974 58.7475 72.0974 58.7492 72.0957C59.0865 71.2342 58.9496 70.4937 58.9496 70.4937C56.9793 72.9556 53.368 73.0782 50.7311 73.1665C49.8006 73.1992 48.9972 73.2253 48.3583 73.3463C46.0181 73.791 44.5563 76.0273 43.7708 77.2288C43.6421 77.425 43.5312 77.595 43.4612 77.6865C43.3112 77.8647 42.4785 78.3094 41.7109 78.1721C41.2448 78.0903 40.9352 77.801 40.7396 77.2615C40.104 75.5074 42.8419 73.4166 42.8696 73.397L48.4529 69.2889L42.0107 71.8342C39.9394 72.6532 38.2609 73.7108 37.0353 74.4841C36.3607 74.9091 35.5214 75.4388 35.2704 75.4715C34.9673 75.4813 34.0188 75.1282 33.5152 74.4138C33.2056 73.974 33.1551 73.5229 33.3572 72.9916C33.8738 71.6331 40.7314 67.6852 44.0201 66.3316C43.7724 67.3337 43.717 68.3489 44.0315 69.248C44.0315 69.248 45.1251 64.638 47.8271 62.235C48.976 65.9066 51.753 65.1791 51.753 65.1791C49.9538 64.025 49.4665 62.0633 49.4078 60.4711C49.3557 59.0685 49.6344 57.9536 49.6409 57.9307L49.7843 57.3896L49.3622 57.0218C49.3459 57.0087 47.8564 55.6944 46.9487 53.3175C46.4011 51.8822 46.7417 50.3831 47.3235 49.5347C47.5256 49.2421 47.9477 48.75 48.5246 48.75C48.6549 48.75 48.7169 48.768 48.7364 48.7745C48.8309 48.9086 48.8929 49.4611 48.9336 49.8289C49.0444 50.8392 49.1976 52.2238 50.1363 53.6362C51.2135 55.2546 52.5531 56.2894 53.7363 57.2032C54.613 57.88 55.4425 58.5192 56.0553 59.3104C56.6941 60.1343 57.2841 61.5451 57.9099 63.0376C58.7019 64.9323 59.5216 66.8923 60.6445 68.1511C62.398 70.1144 69.0976 73.7599 71.0353 74.7914Z" fill="#FF4D4D"/>
<path d="M82.8539 60.7039C83.8333 60.6728 84.6856 61.6324 85.0947 62.1833C83.6622 63.1838 82.101 63.9145 80.53 64.0142C79.6369 64.0714 78.7797 63.8393 77.9697 63.4126C77.9762 62.7506 78.1001 61.6324 78.7764 61.0798C79.5766 60.4276 80.4028 61.0602 80.7206 61.2956C80.3491 61.9577 80.191 62.5609 80.191 62.5609C80.191 62.5609 81.4801 60.7447 82.8539 60.7039Z" fill="#C70000"/>
<path d="M90.5405 56.7505C89.6263 57.9423 88.1677 59.6767 86.4272 61.1545C85.8242 60.5546 84.6183 59.5868 83.1239 59.5999C82.3416 59.6064 81.7419 59.9971 81.2937 60.4908C80.9433 60.1998 79.9704 59.5606 78.5461 59.9546C77.2228 60.3224 76.8561 61.8264 76.7551 62.6078C74.4703 60.7802 72.6841 57.6039 71.7373 55.6602C73.059 56.2879 75.2949 57.0677 78.9242 57.6398C83.7627 58.4032 88.2003 57.442 90.5405 56.7505Z" fill="#231F20"/>
<path d="M110.41 60.1974C110.643 60.1974 110.884 60.1843 111.132 60.1532C110.109 62.419 108.992 65.1833 108.024 67.7417V67.7433C107.685 68.6392 107.364 69.5105 107.072 70.3246C106.6 71.6422 106.204 72.8126 105.924 73.7118L105.764 74.2316C105.037 76.5889 104.216 79.2617 102.679 79.9058C101.981 80.1984 101.116 80.066 100.035 79.502C97.9039 78.3887 99.8008 73.4388 101.773 68.5133C101.696 70.766 102.077 72.5184 102.077 72.5184C102.077 72.5184 102.529 67.642 103.626 63.7823C103.679 63.6336 103.733 63.4865 103.787 63.3377C104.009 62.7247 104.219 62.1149 104.413 61.51L104.414 61.5084C104.452 61.394 104.488 61.2812 104.524 61.1668C104.944 59.8328 105.286 58.5266 105.498 57.2695C105.5 57.2695 105.503 57.2712 105.505 57.2712C106.191 58.8209 107.226 59.3947 107.46 59.5091C107.661 59.6121 108.857 60.1974 110.41 60.1974Z" fill="#FF4D4D"/>
<path d="M109.671 29.3129C109.859 31.4822 110.417 33.5632 110.823 34.853C110.525 34.8595 110.206 34.8791 109.865 34.9151C109.133 34.9936 108.281 35.1636 107.401 35.4023C105.33 32.3339 105.144 29.7739 105.691 28.3631C105.995 27.5833 106.531 27.0798 107.204 26.9457C107.642 26.8575 108.804 26.6237 109.104 26.8493C109.484 27.1354 109.625 28.775 109.671 29.3129Z" fill="#FF4D4D"/>
<path d="M113.233 37.4331C114.834 40.338 117.465 48.7341 114.86 54.7548C114.235 56.1967 113.445 57.2184 112.503 57.8052C112.389 57.8772 112.273 57.9409 112.156 57.9981C112.019 58.0668 111.879 58.1257 111.736 58.1763C109.984 58.7926 108.299 57.918 108.285 57.9115L108.235 57.8854C108.188 57.8592 107.977 57.7366 107.726 57.4587C108.382 57.3295 109.35 56.741 109.765 56.1803C110.732 54.8823 110.86 54.0977 110.668 53.6236C111.551 54.2889 111.427 55.6033 111.427 55.6033C112.104 54.7254 111.771 52.8062 110.138 52.4417C108.504 52.0755 107.935 52.8536 107.912 52.8896C107.537 53.4536 107.599 53.8606 107.599 53.8606C107.599 53.8606 108.041 53.1283 109.407 53.2263C109.361 53.8999 108.771 54.7924 108.297 55.2256C107.904 55.5836 107.415 55.752 106.866 55.7259C106.851 55.6637 106.328 55.6425 106.328 55.6425C106.211 55.6114 106.09 55.5722 105.97 55.5264C103.991 54.7581 105.052 50.5454 105.064 50.5045L105.178 50.0795C106.362 48.0589 109.444 47.5227 109.444 47.5227C109.444 47.5227 106.261 46.5746 104.33 48.842C102.883 46.2673 104.156 44.6652 104.21 44.5982L104.637 44.1045C106.716 42.7362 109.524 42.7787 110.502 42.9242C110.502 42.9242 107.608 41.2159 104.019 43.0501C103.39 41.8731 102.758 40.2351 102.969 39.452C103.421 38.6968 107.754 36.6517 111.002 36.6484H111.01C111.828 36.6484 112.876 36.7841 113.233 37.4331Z" fill="#FF4D4D"/>
<path d="M90.4763 36.7874C91.5731 38.1279 91.9202 40.7222 91.3808 43.5569C90.9962 45.5839 90.2596 47.3217 89.3845 48.6425C89.0178 49.1934 88.6283 49.6724 88.229 50.0697C87.362 50.9295 86.4543 51.4036 85.6623 51.3971C85.0675 51.3922 84.546 51.1192 84.1092 50.5862C83.6122 49.9798 83.2683 49.115 83.0923 48.0867C82.9912 47.495 82.9456 46.8509 82.9554 46.1692C82.9684 45.4205 83.0499 44.6292 83.2047 43.8168C84.0978 39.1185 86.8699 35.9766 88.907 35.9766H88.9216C89.5165 35.9815 90.0396 36.2545 90.4763 36.7874ZM90.1146 43.7073C90.5741 41.2944 89.8163 39.3311 88.4246 39.3196C88.3073 39.3196 88.1867 39.3327 88.0677 39.3605C88.3708 39.7594 88.4881 40.4786 88.3317 41.3009C88.0938 42.5499 87.3164 43.5601 86.5945 43.5536C85.985 43.5487 85.6118 42.8196 85.6541 41.8387C85.3999 42.3946 85.1995 43.0141 85.074 43.668C84.616 46.0793 85.3722 48.0442 86.7639 48.054C88.1573 48.0655 89.6566 46.1185 90.1146 43.7073Z" fill="white"/>
<path d="M80.7206 37.7523C81.6136 38.8427 81.8956 41.0921 81.4409 43.4821C81.3007 44.2242 81.1035 44.9223 80.8656 45.5664C80.644 46.1663 80.3881 46.7205 80.1094 47.2191C79.1121 49.0026 77.8246 50.0848 76.8126 50.0848H76.8028C76.3677 50.0815 75.9977 49.8853 75.6702 49.4848C75.0574 48.7345 74.7315 47.4349 74.7364 45.9195C74.738 45.3424 74.7885 44.7343 74.8879 44.1114C74.9059 43.9937 74.9271 43.8744 74.9499 43.7551C75.6914 39.8578 77.9794 37.1523 79.5782 37.1523H79.5896C80.0231 37.1556 80.393 37.3518 80.7206 37.7523ZM80.8477 43.6325C81.1915 41.8228 80.6489 40.3499 79.6352 40.3417C79.5064 40.3401 79.3761 40.363 79.2473 40.4071C79.3891 40.6752 79.4347 41.0904 79.3451 41.5563C79.1936 42.359 78.7046 43.0047 78.2565 43.0015C77.9143 42.9982 77.6942 42.6189 77.6763 42.0844C77.4547 42.5388 77.2803 43.0554 77.176 43.6047C76.8321 45.4143 77.3748 46.8872 78.3885 46.8954C79.4022 46.9036 80.5038 45.4421 80.8477 43.6325Z" fill="white"/>
<path d="M90.5423 71.3911C90.6449 71.5349 96.1386 79.2067 97.2875 84.912C98.4478 90.6728 97.1555 98.1926 91.7254 98.1403C90.8764 98.0798 89.9947 97.9932 89.0821 97.8771C81.5546 96.9241 77.1251 94.3052 74.736 92.2765C73.913 91.5785 73.2693 90.9001 72.7739 90.3017C72.0487 89.4239 71.6413 88.7144 71.4539 88.3515C71.7749 87.2644 72.6892 83.8363 72.9027 79.3441C72.989 77.5066 72.9581 75.491 72.7218 73.3854C72.4708 71.1573 71.99 68.8278 71.1752 66.4999C67.4041 55.7417 62.1908 50.5138 61.9708 50.2964L59.8212 48.1761L61.0924 52.3153L53.8045 38.3268L54.5215 44.9736C53.107 42.2665 51.2817 38.0391 50.1328 32.5938C50.6494 33.2869 51.2524 34.0389 51.945 34.8203C54.5558 37.7628 58.9836 41.6633 65.2464 43.5351C67.9175 44.3328 70.4728 44.9426 72.9499 45.5098C72.8701 47.6285 73.3345 49.461 74.2862 50.6233C74.9528 51.4374 75.8181 51.8722 76.7894 51.8804H76.8139C78.4484 51.8804 80.1123 50.607 81.3672 48.6109C81.6116 49.8566 82.0679 50.9257 82.7231 51.7268C83.5004 52.6782 84.5125 53.1866 85.6483 53.1948H85.6777C87.146 53.1948 88.6323 52.3349 89.9034 50.8947C92.2925 52.1436 94.7093 53.7244 97.2207 55.8054C99.2415 57.4794 101.013 59.3626 102.538 61.4698C101.895 63.3857 101.101 65.3654 100.319 67.314C99.1258 70.2909 97.998 73.1026 97.5271 75.4207C97.3103 76.4931 96.647 79.7577 99.2073 81.0949C100.172 81.5984 101.076 81.8501 101.909 81.8501C102.424 81.8501 102.912 81.7553 103.371 81.5624C105.68 80.5946 106.634 77.4935 107.476 74.7586L107.634 74.2453C107.73 73.938 107.84 73.598 107.96 73.2318C109.548 79.1692 110.121 86.1969 109.732 94.472C109.425 94.6943 108.868 95.0654 108.045 95.4904C106.41 96.3372 103.73 97.3998 99.895 97.9278C101.709 80.5472 90.702 71.5202 90.5423 71.3911ZM92.5272 55.946C92.6625 55.7368 92.6478 55.4621 92.4881 55.2692C92.33 55.0763 92.0644 55.0093 91.833 55.1041C91.7727 55.1287 85.7331 57.5546 79.1019 56.5084C72.6452 55.4899 70.9047 53.8356 70.8639 53.7963C70.6765 53.6018 70.3783 53.5642 70.1485 53.7097C69.9187 53.8568 69.8226 54.1462 69.9236 54.4028C70.098 54.8491 74.195 65.1676 80.2606 65.1676C80.3731 65.1676 80.4872 65.1643 80.6012 65.1578C86.7239 64.7671 92.2925 56.3057 92.5272 55.946Z" fill="#F23434"/>
<path opacity="0.3" d="M103.563 61.4873C97.6777 53.0505 89.6076 49.7695 89.6076 49.7695L89.2197 50.8959C95.3408 55.6922 98.9179 58.8129 101.918 65.6592L103.563 61.4873Z" fill="#333333"/>
<path opacity="0.3" d="M108.018 70.6055L105.518 77.0267C107.65 88.0138 104.418 96.2398 102.117 97.9285H105.673L110.176 95.1838C110.176 95.1838 111.623 81.9931 108.018 70.6055Z" fill="#333333"/>
<path opacity="0.3" d="M107.793 97.6351C107.793 97.6351 106.653 99.1472 101.619 100.066C101.619 100.066 99.9701 107.036 94.8448 111.921C89.7195 116.804 85.9908 118.596 81.9883 118.55C81.9883 118.55 86.1 123.636 91.2171 120.804C96.3343 117.973 100.537 113.007 104.532 106.369C108.526 99.7324 108.775 96.8945 108.775 96.8945L107.793 97.6351Z" fill="#333333"/>
<path opacity="0.3" d="M84.0258 121.466C84.0258 121.466 82.7106 121.966 80.139 119.867C80.139 119.867 76.1708 122.444 69.8183 124.07C63.4642 125.698 58.6191 123.903 58.6191 123.903C58.6191 123.903 58.6159 128.662 64.8885 128.203C71.1611 127.743 79.9549 124.696 79.9483 124.613C79.9418 124.529 84.0258 122.153 84.0258 122.153V121.466Z" fill="#333333"/>
<path opacity="0.3" d="M57.6625 125.139C57.6625 125.139 56.9878 124.673 56.4875 122.937C56.4875 122.937 53.6029 123.002 49.387 121.587C45.171 120.171 43.336 118.02 43.336 118.02C43.336 118.02 42.5521 120.622 43.8754 122.151C45.1987 123.679 50.8569 125.015 50.8569 125.015C50.8569 125.015 55.6629 126.128 56.0475 126.156C56.4321 126.183 57.9803 125.915 57.9803 125.915L57.6625 125.139Z" fill="#333333"/>
<path opacity="0.3" d="M27.02 80.9062C27.02 80.9062 26.2524 93.6882 32.0231 103.106C37.7921 112.524 42.7138 109.13 42.7138 109.13C42.7138 109.13 42.0391 110.804 41.9071 113.349C41.7751 115.895 42.51 118.023 42.51 118.023C42.51 118.023 33.2698 116.253 29.2347 107.767C25.1996 99.2807 25.3642 87.146 25.3642 87.146L26.6957 79.3516L27.02 80.9062Z" fill="#333333"/>
<path opacity="0.3" d="M71.7313 74.5508C71.7313 74.5508 70.1636 77.5701 66.003 75.8733C61.8425 74.1764 65.6429 76.1512 65.6429 76.1512C65.6429 76.1512 72.4142 80.31 72.3148 79.9961C72.2121 79.6839 71.7313 74.5508 71.7313 74.5508Z" fill="black"/>
<path opacity="0.3" d="M108.803 59.3555C108.803 59.3555 107.61 64.3807 105.863 69.5285C104.116 74.6763 102.514 79.6017 100.098 78.2939C100.098 78.2939 102.813 81.3264 104.866 77.7937C106.919 74.2594 111.994 59.3571 111.994 59.3571H108.803V59.3555Z" fill="black"/>
<path opacity="0.3" d="M112.722 36.965C114.269 38.67 114.885 51.9425 113.897 53.4726C112.909 55.0027 111.671 55.127 111.671 55.127C111.671 55.127 110.98 53.1277 110.502 53.0819C110.026 53.0361 109.445 54.7788 109.445 54.7788L106.888 57.2685C106.888 57.2685 109.746 58.6466 112.354 57.0887C114.961 55.5307 116.736 50.7998 116.987 48.9918C117.236 47.1838 115.323 40.7004 115.323 40.7004C115.323 40.7004 113.998 37.2217 113.899 37.1661C113.798 37.1105 112.947 36.1836 112.947 36.1836L112.722 36.965Z" fill="black"/>
<path opacity="0.3" d="M103.118 42.4654C103.118 42.4654 106.136 41.6742 108.609 42.2986L104.714 43.577L103.563 43.5083L103.118 42.4654Z" fill="black"/>
<path opacity="0.3" d="M103.395 48.187C103.395 48.1445 104.089 47.1996 106.072 46.9495C108.055 46.6993 109.054 47.5265 109.054 47.5265L106.377 48.1886L104.227 50.3726L103.395 48.187Z" fill="black"/>
<path opacity="0.3" d="M107.389 55.8794C106.266 55.8238 105.572 54.2381 106.752 52.9581C107.93 51.6781 110.565 52.5854 110.565 52.5854L109.193 55.2402L107.389 55.8794Z" fill="black"/>
<path opacity="0.3" d="M109.635 28.9125C109.964 31.43 109.349 34.1012 109.635 35.2063C109.92 36.313 111.885 35.6444 111.885 35.6444L110.004 28.1523L109.635 28.9125Z" fill="black"/>
<path opacity="0.3" d="M41.7139 78.1765C43.2735 77.8382 43.6173 76.053 44.5886 74.7959C45.5599 73.5388 46.2525 72.3977 49.5542 72.231C52.856 72.0642 56.0241 72.571 57.8526 71.5395C59.6794 70.5063 55.5466 73.6679 55.5466 73.6679C55.5466 73.6679 49.3326 74.0684 49.2495 74.0684C49.1664 74.0684 46.3096 75.0329 46.3096 75.0329L43.8178 78.8272L41.9534 79.1182L41.7139 78.1765Z" fill="black"/>
<path opacity="0.3" d="M34.3799 75.6071C34.4353 75.4845 36.2377 73.0078 39.2347 71.7278C42.23 70.4478 47.5525 69.6484 47.5525 69.6484L36.0438 76.31L34.7987 76.0681L34.3799 75.6071Z" fill="black"/>
<path opacity="0.3" d="M34.665 67.9998C34.665 67.9998 38.4817 66.6953 42.714 66.625L35.2957 69.476L34.665 67.9998Z" fill="black"/>
<path d="M73.4509 47.0728C73.4509 47.0728 67.5417 45.9367 62.1751 43.617C56.807 41.2973 50.9092 34.9529 50.1335 32.5956C49.3594 30.2383 49.3594 30.2383 49.3594 30.2383C49.3594 30.2383 53.8948 38.6278 61.7596 41.3823C69.6244 44.1368 73.6187 44.8153 73.6187 44.8153L73.4509 47.0728Z" fill="white"/>
<path d="M53.8057 38.3281V44.1102L54.6857 46.17L53.8057 38.3281Z" fill="white"/>
<path d="M59.8216 48.1836C59.8216 48.1836 71.4884 57.3316 74.8895 69.651C78.2907 81.9704 73.7422 92.4883 73.7422 92.4883L74.883 94.1018C74.883 94.1018 75.7435 100.958 71.4966 104.571C67.2496 108.182 63.7898 106.204 62.9962 104.299L62.799 105.282L64.0538 108.203C64.0538 108.203 62.8723 112.396 58.8763 113.349C54.8787 114.302 53.1823 111.85 53.5033 109.794L52.7243 110.631V112.829C52.7243 112.829 49.2466 114.582 46.3621 113.97C43.4775 113.359 42.6268 110.547 44.105 109.378C45.5847 108.21 53.1024 109.378 53.1024 109.378L54.4061 108.203L61.9206 104.299V100.989C61.9206 100.989 66.0013 98.4012 67.9145 95.8559C69.8278 93.3106 71.2211 90.391 71.2211 90.391L70.5774 87.383C70.5774 87.383 73.5174 75.6293 70.1896 65.6672C66.8618 55.7034 59.8216 48.1836 59.8216 48.1836Z" fill="white"/>
<path d="M34.247 96.3372L38.551 81.6752C38.551 81.6752 41.5643 97.4913 40.6777 105.84L42.3612 109.315L44.672 108.501C44.672 108.501 43.3504 95.8222 41.8201 89.0332C40.2898 82.2441 37.6938 78.2618 36.7909 78.7375C35.8881 79.2133 34.04 90.6025 34.04 90.6025L34.247 96.3372Z" fill="white"/>
<circle cx="11.738" cy="31.1081" r="8.26827" fill="url(#paint1_linear)"/>
<circle cx="132.905" cy="104.896" r="5.07586" fill="url(#paint2_linear)"/>
<circle cx="122.887" cy="130.403" r="13.9034" transform="rotate(139.84 122.887 130.403)" fill="url(#paint3_linear)"/>
<path fill-rule="evenodd" clip-rule="evenodd" d="M130.91 125.343C131.306 125.724 131.314 126.349 130.926 126.739L121.116 136.609C120.918 136.808 120.644 136.915 120.362 136.906C120.079 136.896 119.813 136.769 119.631 136.557L115.377 131.622C115.018 131.206 115.071 130.583 115.494 130.231C115.917 129.879 116.551 129.931 116.91 130.346L120.45 134.453L129.489 125.36C129.877 124.97 130.513 124.963 130.91 125.343Z" fill="#FFFBFB"/>
<defs>
<filter id="filter0_f" x="38.4025" y="117.704" width="73.5642" height="30.6063" filterUnits="userSpaceOnUse" color-interpolation-filters="sRGB">
<feFlood flood-opacity="0" result="BackgroundImageFix"/>
<feBlend mode="normal" in="SourceGraphic" in2="BackgroundImageFix" result="shape"/>
<feGaussianBlur stdDeviation="4.22989" result="effect1_foregroundBlur"/>
</filter>
<linearGradient id="paint0_linear" x1="20.5438" y1="46.837" x2="26.2413" y2="41.4524" gradientUnits="userSpaceOnUse">
<stop stop-color="#D91F2C"/>
<stop offset="1" stop-color="#EC7981"/>
</linearGradient>
<linearGradient id="paint1_linear" x1="8.98191" y1="38.4577" x2="21.6599" y2="27.8008" gradientUnits="userSpaceOnUse">
<stop stop-color="#39BF9F"/>
<stop offset="0.833673" stop-color="#66EDCD"/>
</linearGradient>
<linearGradient id="paint2_linear" x1="131.213" y1="109.408" x2="138.996" y2="102.866" gradientUnits="userSpaceOnUse">
<stop stop-color="#61AAFF"/>
<stop offset="0.833673" stop-color="#CA66ED"/>
</linearGradient>
<linearGradient id="paint3_linear" x1="134.628" y1="113.41" x2="110.47" y2="142.182" gradientUnits="userSpaceOnUse">
<stop stop-color="#237BD3"/>
<stop offset="1" stop-color="#7EBDFC"/>
</linearGradient>
</defs>
</svg>
