<svg width="24" height="25" viewBox="0 0 24 25" fill="none" xmlns="http://www.w3.org/2000/svg">
<path d="M8.73433 12.1233C8.15618 10.6812 8.09367 9.08372 8.55738 7.60086C9.02108 6.11801 9.98256 4.84073 11.2793 3.98494C12.576 3.12915 14.1285 2.74733 15.6742 2.90403C17.22 3.06072 18.6642 3.74632 19.7628 4.84493C20.8614 5.94354 21.547 7.38778 21.7037 8.93353C21.8604 10.4793 21.4786 12.0317 20.6228 13.3285C19.767 14.6252 18.4897 15.5867 17.0069 16.0504C15.524 16.5141 13.9265 16.4515 12.4844 15.8734L12.4845 15.8733L11.25 17.1077H9V19.3577H6.75V21.6077H3V17.8577L8.7345 12.1232L8.73433 12.1233Z" stroke="#6F7780" stroke-width="1.125" stroke-linecap="round" stroke-linejoin="round"/>
<path opacity="0.5" d="M16.875 8.10742C17.0821 8.10742 17.25 7.93953 17.25 7.73242C17.25 7.52532 17.0821 7.35742 16.875 7.35742C16.6679 7.35742 16.5 7.52532 16.5 7.73242C16.5 7.93953 16.6679 8.10742 16.875 8.10742Z" stroke="#6F7780" stroke-width="1.125" stroke-linecap="round" stroke-linejoin="round"/>
<path d="M16.875 8.66992C17.3928 8.66992 17.8125 8.25019 17.8125 7.73242C17.8125 7.21465 17.3928 6.79492 16.875 6.79492C16.3572 6.79492 15.9375 7.21465 15.9375 7.73242C15.9375 8.25019 16.3572 8.66992 16.875 8.66992Z" fill="#6F7780"/>
</svg>
