<svg width="80" height="80" viewBox="0 0 80 80" fill="none" xmlns="http://www.w3.org/2000/svg">
<path d="M40.0063 62.5C52.4328 62.5 62.5063 52.4264 62.5063 40C62.5063 27.5736 52.4328 17.5 40.0063 17.5C27.5799 17.5 17.5063 27.5736 17.5063 40C17.5063 52.4264 27.5799 62.5 40.0063 62.5Z" fill="#C790FF"/>
<path d="M62.5053 40.0053C62.5059 45.3852 60.5786 50.5873 57.0728 54.6681C53.567 58.749 48.7149 61.4384 43.3964 62.2488C38.0778 63.0591 32.6449 61.9367 28.0829 59.085C23.5209 56.2334 20.1318 51.8413 18.5303 46.7053C33.2671 43.5851 47.2695 37.6701 59.7803 29.2803C61.5768 32.5689 62.5141 36.2579 62.5053 40.0053Z" fill="#8F4FCF"/>
<path d="M47.0766 43.5353L42.5063 38.9648V32.5C42.5063 31.837 42.243 31.2011 41.7741 30.7322C41.3053 30.2634 40.6694 30 40.0063 30C39.3433 30 38.7074 30.2634 38.2386 30.7322C37.7697 31.2011 37.5063 31.837 37.5063 32.5V40C37.51 40.6633 37.7738 41.2987 38.2408 41.7697L43.5408 47.0698C44.0124 47.5251 44.6439 47.7771 45.2994 47.7714C45.9548 47.7657 46.5819 47.5028 47.0454 47.0393C47.5089 46.5758 47.7718 45.9487 47.7775 45.2933C47.7832 44.6378 47.5312 44.0063 47.0759 43.5348L47.0766 43.5353Z" fill="white"/>
<path d="M40.0021 5.00005C39.3391 5.00005 38.7032 5.26345 38.2343 5.73229C37.7655 6.20113 37.5021 6.83701 37.5021 7.50005C37.5021 8.1631 37.7655 8.79898 38.2343 9.26782C38.7032 9.73666 39.3391 10.0001 40.0021 10.0001C47.0007 9.97113 53.791 12.3798 59.2069 16.8126C64.6228 21.2453 68.3263 27.4254 69.6815 34.2916C71.0366 41.1578 69.9589 48.2816 66.6332 54.4396C63.3076 60.5976 57.9417 65.4056 51.4569 68.0379C44.9721 70.6701 37.7732 70.9624 31.0964 68.8645C24.4196 66.7666 18.6815 62.4094 14.8677 56.5413C11.0538 50.6731 9.40206 43.6601 10.1962 36.7067C10.9903 29.7532 14.1806 23.2932 19.2193 18.4361L19.0498 19.7291C18.9636 20.3866 19.1422 21.0514 19.5462 21.5773C19.9502 22.1032 20.5466 22.4471 21.2041 22.5333C21.8616 22.6195 22.5265 22.441 23.0524 22.037C23.5783 21.633 23.9221 21.0366 24.0083 20.3791L24.9813 12.9426C25.0509 12.2879 24.8658 11.6316 24.4644 11.1097C24.063 10.5879 23.4762 10.2406 22.8256 10.1398L15.3891 9.16755C15.0591 9.11507 14.7219 9.12928 14.3974 9.20935C14.073 9.28942 13.7679 9.43372 13.5002 9.63373C13.2325 9.83373 13.0076 10.0854 12.8388 10.3738C12.67 10.6622 12.5607 10.9815 12.5175 11.3129C12.4742 11.6443 12.4978 11.9809 12.5869 12.303C12.676 12.6251 12.8288 12.926 13.0362 13.1881C13.2436 13.4501 13.5014 13.6679 13.7944 13.8286C14.0874 13.9893 14.4097 14.0896 14.7421 14.1236L16.2988 14.3276C10.3306 19.8656 6.484 27.3142 5.42331 35.3866C4.36262 43.4591 6.15451 51.6485 10.4895 58.5404C14.8244 65.4322 21.4302 70.5938 29.1658 73.1334C36.9015 75.673 45.2811 75.4312 52.8575 72.4498C60.4338 69.4685 66.7311 63.9347 70.6614 56.8044C74.5918 49.674 75.9086 41.3949 74.3843 33.397C72.8599 25.3992 68.5902 18.1848 62.3127 13C56.0351 7.81524 48.1439 4.98567 40.0021 5.00005Z" fill="#8500EE"/>
<path d="M47.0792 47.0715C46.6052 47.5361 45.9679 47.7963 45.3042 47.7963C44.6405 47.7963 44.0032 47.5361 43.5292 47.0715L38.2292 41.7715C38.0032 41.5325 37.825 41.2524 37.7042 40.9465C37.7042 40.9215 37.6792 40.9215 37.6792 40.8965C39.2542 40.2965 40.8542 39.6215 42.5042 38.8965V38.9715L47.0792 43.5215C47.5476 43.9935 47.8104 44.6315 47.8104 45.2965C47.8104 45.9614 47.5476 46.5995 47.0792 47.0715Z" fill="#CECECE"/>
</svg>
