<svg width="24" height="24" viewBox="0 0 24 24" fill="none" xmlns="http://www.w3.org/2000/svg">
<path d="M11.4696 6.6946L13.3257 4.83845C13.7087 4.45511 14.1635 4.15099 14.664 3.94345C15.1645 3.73592 15.7011 3.62903 16.2429 3.62891C16.7848 3.62878 17.3214 3.73542 17.822 3.94272C18.3227 4.15002 18.7776 4.45393 19.1607 4.83709C19.5439 5.22025 19.8478 5.67514 20.0551 6.17578C20.2624 6.67642 20.369 7.213 20.3689 7.75487C20.3688 8.29673 20.2619 8.83326 20.0543 9.33381C19.8468 9.83435 19.5427 10.2891 19.1594 10.6721L16.5077 13.3237C16.1247 13.7068 15.6699 14.0106 15.1695 14.2179C14.669 14.4252 14.1326 14.5319 13.5909 14.5319C13.0492 14.5319 12.5128 14.4252 12.0123 14.2179C11.5118 14.0106 11.0571 13.7068 10.6741 13.3237" stroke="#6F7780" stroke-width="1.125" stroke-linecap="round" stroke-linejoin="round"/>
<path d="M12.5302 17.3022L10.674 19.1583C10.2911 19.5416 9.8363 19.8458 9.33576 20.0533C8.83521 20.2608 8.29868 20.3677 7.75682 20.3679C7.21496 20.368 6.67838 20.2613 6.17773 20.054C5.67709 19.8467 5.2222 19.5428 4.83904 19.1597C4.45589 18.7765 4.15198 18.3216 3.94467 17.821C3.73737 17.3203 3.63073 16.7838 3.63086 16.2419C3.63099 15.7 3.73787 15.1635 3.94541 14.663C4.15295 14.1624 4.45707 13.7077 4.8404 13.3247L7.49205 10.673C7.87509 10.29 8.32983 9.98614 8.8303 9.77884C9.33077 9.57154 9.86717 9.46484 10.4089 9.46484C10.9506 9.46484 11.487 9.57154 11.9874 9.77884C12.4879 9.98614 12.9426 10.29 13.3257 10.673" stroke="#6F7780" stroke-width="1.125" stroke-linecap="round" stroke-linejoin="round"/>
</svg>
