<svg width="100%" height="100%" viewBox="0 0 22 21" fill="none" xmlns="http://www.w3.org/2000/svg">
  <path d="M21.4212 7.88257C21.3275 7.58859 21.1474 7.32965 20.9044 7.13955C20.6614 6.94945 20.3667 6.83701 20.0589 6.8169L14.491 6.42725L12.4256 1.22632C12.3138 0.938787 12.1178 0.691726 11.8632 0.517511C11.6086 0.343296 11.3073 0.250053 10.9988 0.25H10.9973C10.6893 0.250549 10.3886 0.34403 10.1346 0.518219C9.88057 0.692408 9.68501 0.939198 9.5735 1.22632L7.47731 6.45727L1.9402 6.8169C1.63232 6.83701 1.33765 6.94945 1.09463 7.13955C0.851614 7.32965 0.671538 7.58858 0.577897 7.88257C0.479112 8.18073 0.472392 8.50172 0.558612 8.80375C0.644832 9.10578 0.819996 9.37485 1.0613 9.57593L5.32106 13.1765L4.05397 18.1606C3.96663 18.4964 3.9827 18.8506 4.10005 19.1771C4.2174 19.5035 4.43058 19.787 4.71168 19.9902C4.98308 20.1877 5.30763 20.2989 5.64309 20.3093C5.97855 20.3198 6.30938 20.229 6.59254 20.0488L10.9871 17.2649C10.9929 17.2605 10.9988 17.2576 11.012 17.2649L15.7405 20.2605C15.9972 20.4245 16.2974 20.5072 16.6019 20.4978C16.9064 20.4884 17.2009 20.3873 17.447 20.2078C17.7017 20.0236 17.8949 19.7669 18.0013 19.4712C18.1077 19.1754 18.1223 18.8545 18.0432 18.5503L16.697 13.1055L20.9378 9.57593C21.1791 9.37485 21.3542 9.10578 21.4404 8.80375C21.5267 8.50172 21.5199 8.18073 21.4212 7.88257Z" fill="#F5C723"/>
</svg>
