<svg width="80" height="79" viewBox="0 0 80 79" fill="none" xmlns="http://www.w3.org/2000/svg">
<path d="M67.5 17.1709H47.5C46.837 17.1709 46.2011 17.4294 45.7322 17.8894C45.2634 18.3495 45 18.9735 45 19.6242V22.0774H35V19.6242C35 18.9735 34.7366 18.3495 34.2678 17.8894C33.7989 17.4294 33.163 17.1709 32.5 17.1709H12.5C10.5115 17.173 8.60516 17.9491 7.19911 19.3289C5.79306 20.7087 5.00218 22.5794 5 24.5307V58.8765C5.00218 60.8278 5.79306 62.6985 7.19911 64.0783C8.60516 65.4581 10.5115 66.2342 12.5 66.2363H67.5C69.4885 66.2342 71.3948 65.4581 72.8009 64.0783C74.2069 62.6985 74.9978 60.8278 75 58.8765V24.5307C74.9978 22.5794 74.2069 20.7087 72.8009 19.3289C71.3948 17.9491 69.4885 17.173 67.5 17.1709Z" fill="#E6ECFF"/>
<path d="M75 50.1476V58.8813C74.9942 60.8315 74.2022 62.7002 72.7969 64.0792C71.3916 65.4582 69.4873 66.2354 67.5 66.2411H12.5C10.5127 66.2354 8.60838 65.4582 7.20311 64.0792C5.79785 62.7002 5.00581 60.8315 5 58.8813V24.5355C4.99937 23.5382 5.2123 22.552 5.625 21.6406C15.425 36.2867 35.75 54.539 75 50.1476Z" fill="#B7C6E2"/>
<path d="M45 12.2656H35C32.2386 12.2656 30 14.4624 30 17.1722V22.0787C30 24.7885 32.2386 26.9852 35 26.9852H45C47.7614 26.9852 50 24.7885 50 22.0787V17.1722C50 14.4624 47.7614 12.2656 45 12.2656Z" fill="#4294FF"/>
<path d="M60.9525 43.6786C61.9503 42.41 62.4942 40.854 62.5 39.2514C62.5 37.2995 61.7098 35.4275 60.3033 34.0472C58.8968 32.667 56.9891 31.8916 55 31.8916C53.0109 31.8916 51.1032 32.667 49.6967 34.0472C48.2902 35.4275 47.5 37.2995 47.5 39.2514C47.5058 40.854 48.0497 42.41 49.0475 43.6786C47.7961 44.5845 46.7782 45.7654 46.0753 47.1266C45.3725 48.4879 45.0042 49.9918 45 51.5178V53.971C45 54.6217 45.2634 55.2457 45.7322 55.7058C46.2011 56.1658 46.837 56.4243 47.5 56.4243H62.5C63.163 56.4243 63.7989 56.1658 64.2678 55.7058C64.7366 55.2457 65 54.6217 65 53.971V51.5178C64.9958 49.9918 64.6275 48.4879 63.9247 47.1266C63.2218 45.7654 62.2039 44.5845 60.9525 43.6786Z" fill="#4294FF"/>
<path d="M40 39.2522H17.5C16.837 39.2522 16.2011 38.9938 15.7322 38.5337C15.2634 38.0736 15 37.4496 15 36.799C15 36.1483 15.2634 35.5243 15.7322 35.0643C16.2011 34.6042 16.837 34.3457 17.5 34.3457H40C40.663 34.3457 41.2989 34.6042 41.7678 35.0643C42.2366 35.5243 42.5 36.1483 42.5 36.799C42.5 37.4496 42.2366 38.0736 41.7678 38.5337C41.2989 38.9938 40.663 39.2522 40 39.2522Z" fill="#4294FF"/>
<path d="M35 46.6126H17.5C16.837 46.6126 16.2011 46.3541 15.7322 45.8941C15.2634 45.434 15 44.81 15 44.1593C15 43.5087 15.2634 42.8847 15.7322 42.4246C16.2011 41.9645 16.837 41.7061 17.5 41.7061H35C35.663 41.7061 36.2989 41.9645 36.7678 42.4246C37.2366 42.8847 37.5 43.5087 37.5 44.1593C37.5 44.81 37.2366 45.434 36.7678 45.8941C36.2989 46.3541 35.663 46.6126 35 46.6126Z" fill="#4294FF"/>
<path d="M30 53.972H17.5C16.837 53.972 16.2011 53.7135 15.7322 53.2534C15.2634 52.7933 15 52.1693 15 51.5187C15 50.8681 15.2634 50.2441 15.7322 49.784C16.2011 49.3239 16.837 49.0654 17.5 49.0654H30C30.663 49.0654 31.2989 49.3239 31.7678 49.784C32.2366 50.2441 32.5 50.8681 32.5 51.5187C32.5 52.1693 32.2366 52.7933 31.7678 53.2534C31.2989 53.7135 30.663 53.972 30 53.972Z" fill="#2965ED"/>
<path d="M22.9501 39.2536H17.5001C16.8376 39.2517 16.2028 38.9926 15.7344 38.533C15.266 38.0733 15.002 37.4504 15.0001 36.8003C14.9964 36.2715 15.1709 35.7563 15.4965 35.3349C15.822 34.9134 16.2802 34.6093 16.8001 34.4697C18.7502 36.1842 20.8039 37.7817 22.9501 39.2536Z" fill="#4294FF"/>
<path d="M36.4 46.1955C35.9879 46.4719 35.4992 46.6175 35 46.6126H17.5C16.837 46.6126 16.2011 46.3541 15.7322 45.8941C15.2634 45.434 15 44.81 15 44.1593C15 43.5087 15.2634 42.8847 15.7322 42.4246C16.2011 41.9645 16.837 41.7061 17.5 41.7061H26.875C29.9199 43.455 33.1055 44.9565 36.4 46.1955Z" fill="#2965ED"/>
<path d="M16.8001 34.4697C18.7502 36.1842 20.8039 37.7817 22.9501 39.2536H17.5001C16.8376 39.2517 16.2028 38.9926 15.7344 38.533C15.266 38.0733 15.002 37.4504 15.0001 36.8003C14.9964 36.2715 15.1709 35.7563 15.4965 35.3349C15.822 34.9134 16.2802 34.6093 16.8001 34.4697Z" fill="#2965ED"/>
<path d="M65.0003 51.5146V53.9679C64.9984 54.618 64.7344 55.2409 64.266 55.7006C63.7975 56.1602 63.1628 56.4193 62.5003 56.4212H47.5003C46.8378 56.4193 46.2031 56.1602 45.7346 55.7006C45.2662 55.2409 45.0022 54.618 45.0003 53.9679V51.5146C44.9928 50.6245 45.1278 49.7387 45.4003 48.8896C51.8155 50.2904 58.3799 50.9247 64.9503 50.7787C64.9918 51.0218 65.0086 51.2683 65.0003 51.5146Z" fill="#2965ED"/>
</svg>
