<svg width="80" height="80" viewBox="0 0 80 80" fill="none" xmlns="http://www.w3.org/2000/svg">
<path d="M20 60.0029H10C8.61929 60.0029 7.5 61.1222 7.5 62.5029V72.5029C7.5 73.8836 8.61929 75.0029 10 75.0029H20C21.3807 75.0029 22.5 73.8836 22.5 72.5029V62.5029C22.5 61.1222 21.3807 60.0029 20 60.0029Z" fill="url(#paint0_linear)"/>
<path d="M45 60.0029H35C33.6193 60.0029 32.5 61.1222 32.5 62.5029V72.5029C32.5 73.8836 33.6193 75.0029 35 75.0029H45C46.3807 75.0029 47.5 73.8836 47.5 72.5029V62.5029C47.5 61.1222 46.3807 60.0029 45 60.0029Z" fill="url(#paint1_linear)"/>
<path d="M70 60.0029H60C58.6193 60.0029 57.5 61.1222 57.5 62.5029V72.5029C57.5 73.8836 58.6193 75.0029 60 75.0029H70C71.3807 75.0029 72.5 73.8836 72.5 72.5029V62.5029C72.5 61.1222 71.3807 60.0029 70 60.0029Z" fill="url(#paint2_linear)"/>
<path d="M54.9245 31.8945L54.7915 31.3623C54.2844 29.3297 53.3563 27.4263 52.0673 25.775C50.7782 24.1237 49.1569 22.7615 47.3082 21.7763C48.6382 20.352 49.5231 18.5702 49.8541 16.6499C50.1851 14.7295 49.9479 12.7542 49.1715 10.9669C48.395 9.17956 47.1133 7.65801 45.4839 6.58927C43.8544 5.52053 41.9481 4.95117 39.9995 4.95117C38.0508 4.95117 36.1445 5.52053 34.5151 6.58927C32.8856 7.65801 31.6039 9.17956 30.8275 10.9669C30.051 12.7542 29.8138 14.7295 30.1448 16.6499C30.4758 18.5702 31.3607 20.352 32.6907 21.7763C30.842 22.7613 29.2206 24.1235 27.9315 25.7746C26.6423 27.4257 25.7142 29.3291 25.207 31.3615L25.074 31.8938C24.9816 32.2624 24.9745 32.6473 25.0532 33.0191C25.132 33.3909 25.2944 33.7399 25.5283 34.0395C25.7621 34.3391 26.0612 34.5815 26.4028 34.7481C26.7443 34.9148 27.1194 35.0014 27.4995 35.0013H52.4995C52.8794 35.0012 53.2543 34.9146 53.5958 34.748C53.9372 34.5813 54.2362 34.339 54.4699 34.0396C54.7037 33.7401 54.8661 33.3912 54.9449 33.0195C55.0237 32.6479 55.0167 32.2631 54.9245 31.8945Z" fill="url(#paint3_linear)"/>
<path d="M65 45.0029H42.5V40.0029C42.5 39.3399 42.2366 38.704 41.7678 38.2352C41.2989 37.7663 40.663 37.5029 40 37.5029C39.337 37.5029 38.7011 37.7663 38.2322 38.2352C37.7634 38.704 37.5 39.3399 37.5 40.0029V45.0029H15C14.337 45.0029 13.7011 45.2663 13.2322 45.7352C12.7634 46.204 12.5 46.8399 12.5 47.5029V55.0029C12.5 55.666 12.7634 56.3019 13.2322 56.7707C13.7011 57.2395 14.337 57.5029 15 57.5029C15.663 57.5029 16.2989 57.2395 16.7678 56.7707C17.2366 56.3019 17.5 55.666 17.5 55.0029V50.0029H37.5V55.0029C37.5 55.666 37.7634 56.3019 38.2322 56.7707C38.7011 57.2395 39.337 57.5029 40 57.5029C40.663 57.5029 41.2989 57.2395 41.7678 56.7707C42.2366 56.3019 42.5 55.666 42.5 55.0029V50.0029H62.5V55.0029C62.5 55.666 62.7634 56.3019 63.2322 56.7707C63.7011 57.2395 64.337 57.5029 65 57.5029C65.663 57.5029 66.2989 57.2395 66.7678 56.7707C67.2366 56.3019 67.5 55.666 67.5 55.0029V47.5029C67.5 46.8399 67.2366 46.204 66.7678 45.7352C66.2989 45.2663 65.663 45.0029 65 45.0029Z" fill="#6E97FF"/>
<defs>
<linearGradient id="paint0_linear" x1="12.0521" y1="76.9741" x2="24.4601" y2="59.4569" gradientUnits="userSpaceOnUse">
<stop stop-color="#00E14D"/>
<stop offset="1" stop-color="#9EFBA2"/>
</linearGradient>
<linearGradient id="paint1_linear" x1="37.0521" y1="76.9741" x2="49.4601" y2="59.4569" gradientUnits="userSpaceOnUse">
<stop stop-color="#00E14D"/>
<stop offset="1" stop-color="#9EFBA2"/>
</linearGradient>
<linearGradient id="paint2_linear" x1="62.0521" y1="76.9741" x2="74.4601" y2="59.4569" gradientUnits="userSpaceOnUse">
<stop stop-color="#00E14D"/>
<stop offset="1" stop-color="#9EFBA2"/>
</linearGradient>
<linearGradient id="paint3_linear" x1="34.1033" y1="38.9501" x2="58.9744" y2="3.8964" gradientUnits="userSpaceOnUse">
<stop stop-color="#00E14D"/>
<stop offset="1" stop-color="#9EFBA2"/>
</linearGradient>
</defs>
</svg>
