<svg width="25" height="24" viewBox="0 0 25 24" fill="none" xmlns="http://www.w3.org/2000/svg">
<path d="M20.5 5.25L4 5.25001" stroke="#D91F2C" stroke-width="1.5" stroke-linecap="round" stroke-linejoin="round"/>
<path d="M10 9.75V15.75" stroke="#D91F2C" stroke-width="1.5" stroke-linecap="round" stroke-linejoin="round"/>
<path d="M14.5 9.75V15.75" stroke="#D91F2C" stroke-width="1.5" stroke-linecap="round" stroke-linejoin="round"/>
<path d="M19 5.25V19.5C19 19.6989 18.921 19.8897 18.7803 20.0303C18.6397 20.171 18.4489 20.25 18.25 20.25H6.25C6.05109 20.25 5.86032 20.171 5.71967 20.0303C5.57902 19.8897 5.5 19.6989 5.5 19.5V5.25" stroke="#D91F2C" stroke-width="1.5" stroke-linecap="round" stroke-linejoin="round"/>
<path d="M16 5.25V3.75C16 3.35218 15.842 2.97064 15.5607 2.68934C15.2794 2.40804 14.8978 2.25 14.5 2.25H10C9.60218 2.25 9.22064 2.40804 8.93934 2.68934C8.65804 2.97064 8.5 3.35218 8.5 3.75V5.25" stroke="#D91F2C" stroke-width="1.5" stroke-linecap="round" stroke-linejoin="round"/>
</svg>
