<svg width="30" height="24" viewBox="0 0 30 24" fill="none" xmlns="http://www.w3.org/2000/svg">
<g filter="url(#filter0_d)">
<g clip-path="url(#clip0)">
<mask id="mask0" mask-type="alpha" maskUnits="userSpaceOnUse" x="3" y="1" width="25" height="19">
<rect x="3" y="1" width="24.333" height="18.2498" fill="white"/>
</mask>
<g mask="url(#mask0)">
<path fill-rule="evenodd" clip-rule="evenodd" d="M3 1H27.333V19.2498H3V1Z" fill="#F7FCFF"/>
<path fill-rule="evenodd" clip-rule="evenodd" d="M3 12.1523V13.6732H27.333V12.1523H3Z" fill="#E31D1C"/>
<path fill-rule="evenodd" clip-rule="evenodd" d="M3 14.9414V16.4622H27.333V14.9414H3Z" fill="#E31D1C"/>
<path fill-rule="evenodd" clip-rule="evenodd" d="M3 6.57617V8.09698H27.333V6.57617H3Z" fill="#E31D1C"/>
<path fill-rule="evenodd" clip-rule="evenodd" d="M3 17.7285V19.2493H27.333V17.7285H3Z" fill="#E31D1C"/>
<path fill-rule="evenodd" clip-rule="evenodd" d="M3 9.36523V10.886H27.333V9.36523H3Z" fill="#E31D1C"/>
<path fill-rule="evenodd" clip-rule="evenodd" d="M3 1V2.52081H27.333V1H3Z" fill="#E31D1C"/>
<path fill-rule="evenodd" clip-rule="evenodd" d="M3 3.78711V5.30792H27.333V3.78711H3Z" fill="#E31D1C"/>
<rect x="3" y="1" width="15.2081" height="9.88528" fill="#2E42A5"/>
<path fill-rule="evenodd" clip-rule="evenodd" d="M4.30937 3.23366L3.75741 3.62062L3.94375 2.93199L3.45351 2.49559H4.09384L4.3086 1.93359L4.56042 2.49559H5.10628L4.67739 2.93199L4.84343 3.62062L4.30937 3.23366ZM7.35061 3.23424L6.79865 3.6212L6.985 2.93257L6.49475 2.49616H7.13508L7.34984 1.93417L7.60167 2.49616H8.14753L7.71863 2.93257L7.88467 3.6212L7.35061 3.23424ZM9.84027 3.6212L10.3922 3.23424L10.9263 3.6212L10.7603 2.93257L11.1892 2.49616H10.6433L10.3915 1.93417L10.1767 2.49616H9.53638L10.0266 2.93257L9.84027 3.6212ZM13.4339 3.23424L12.8819 3.6212L13.0682 2.93257L12.578 2.49616H13.2183L13.4331 1.93417L13.6849 2.49616H14.2308L13.8019 2.93257L13.9679 3.6212L13.4339 3.23424ZM3.75702 6.66283L4.30899 6.27587L4.84305 6.66283L4.677 5.9742L5.1059 5.53779H4.56004L4.30821 4.9758L4.09345 5.53779H3.45312L3.94337 5.9742L3.75702 6.66283ZM7.35061 6.27587L6.79865 6.66283L6.985 5.9742L6.49475 5.53779H7.13508L7.34984 4.9758L7.60167 5.53779H8.14753L7.71863 5.9742L7.88467 6.66283L7.35061 6.27587ZM9.84027 6.66283L10.3922 6.27587L10.9263 6.66283L10.7603 5.9742L11.1892 5.53779H10.6433L10.3915 4.9758L10.1767 5.53779H9.53638L10.0266 5.9742L9.84027 6.66283ZM13.4339 6.27587L12.8819 6.66283L13.0682 5.9742L12.578 5.53779H13.2183L13.4331 4.9758L13.6849 5.53779H14.2308L13.8019 5.9742L13.9679 6.66283L13.4339 6.27587ZM3.75702 9.70445L4.30899 9.31749L4.84305 9.70445L4.677 9.01582L5.1059 8.57941H4.56004L4.30821 8.01742L4.09345 8.57941H3.45312L3.94337 9.01582L3.75702 9.70445ZM7.35061 9.31749L6.79865 9.70445L6.985 9.01582L6.49475 8.57941H7.13508L7.34984 8.01742L7.60167 8.57941H8.14753L7.71863 9.01582L7.88467 9.70445L7.35061 9.31749ZM9.84027 9.70445L10.3922 9.31749L10.9263 9.70445L10.7603 9.01582L11.1892 8.57941H10.6433L10.3915 8.01742L10.1767 8.57941H9.53638L10.0266 9.01582L9.84027 9.70445ZM13.4339 9.31749L12.8819 9.70445L13.0682 9.01582L12.578 8.57941H13.2183L13.4331 8.01742L13.6849 8.57941H14.2308L13.8019 9.01582L13.9679 9.70445L13.4339 9.31749ZM15.9235 3.6212L16.4755 3.23424L17.0096 3.6212L16.8435 2.93257L17.2724 2.49616H16.7265L16.4747 1.93417L16.26 2.49616H15.6196L16.1099 2.93257L15.9235 3.6212ZM16.4755 6.27587L15.9235 6.66283L16.1099 5.9742L15.6196 5.53779H16.26L16.4747 4.9758L16.7265 5.53779H17.2724L16.8435 5.9742L17.0096 6.66283L16.4755 6.27587ZM15.9235 9.70445L16.4755 9.31749L17.0096 9.70445L16.8435 9.01582L17.2724 8.57941H16.7265L16.4747 8.01742L16.26 8.57941H15.6196L16.1099 9.01582L15.9235 9.70445ZM5.8298 4.75505L5.27784 5.14201L5.46418 4.45338L4.97394 4.01698H5.61427L5.82903 3.45498L6.08085 4.01698H6.62671L6.19782 4.45338L6.36386 5.14201L5.8298 4.75505ZM8.31946 5.14201L8.87143 4.75505L9.40549 5.14201L9.23944 4.45338L9.66834 4.01698H9.12248L8.87065 3.45498L8.65589 4.01698H8.01556L8.50581 4.45338L8.31946 5.14201ZM11.9131 4.75505L11.3611 5.14201L11.5474 4.45338L11.0572 4.01698H11.6975L11.9123 3.45498L12.1641 4.01698H12.71L12.2811 4.45338L12.4471 5.14201L11.9131 4.75505ZM5.27784 8.18364L5.8298 7.79668L6.36386 8.18364L6.19782 7.49501L6.62671 7.0586H6.08085L5.82903 6.49661L5.61427 7.0586H4.97394L5.46418 7.49501L5.27784 8.18364ZM8.87143 7.79668L8.31946 8.18364L8.50581 7.49501L8.01556 7.0586H8.65589L8.87065 6.49661L9.12248 7.0586H9.66834L9.23944 7.49501L9.40549 8.18364L8.87143 7.79668ZM11.3611 8.18364L11.9131 7.79668L12.4471 8.18364L12.2811 7.49501L12.71 7.0586H12.1641L11.9123 6.49661L11.6975 7.0586H11.0572L11.5474 7.49501L11.3611 8.18364ZM14.9547 4.75505L14.4027 5.14201L14.5891 4.45338L14.0988 4.01698H14.7391L14.9539 3.45498L15.2057 4.01698H15.7516L15.3227 4.45338L15.4887 5.14201L14.9547 4.75505ZM14.4027 8.18364L14.9547 7.79668L15.4887 8.18364L15.3227 7.49501L15.7516 7.0586H15.2057L14.9539 6.49661L14.7391 7.0586H14.0988L14.5891 7.49501L14.4027 8.18364Z" fill="#F7FCFF"/>
</g>
<rect x="3" y="1" width="24.333" height="18.2498" fill="url(#paint0_linear)" style="mix-blend-mode:overlay"/>
</g>
<path d="M5 2H25V0H5V2ZM26 3V17H28V3H26ZM25 18H5V20H25V18ZM4 17V3H2V17H4ZM5 18C4.44772 18 4 17.5523 4 17H2C2 18.6569 3.34314 20 5 20V18ZM26 17C26 17.5523 25.5523 18 25 18V20C26.6569 20 28 18.6569 28 17H26ZM25 2C25.5523 2 26 2.44771 26 3H28C28 1.34315 26.6569 0 25 0V2ZM5 0C3.34315 0 2 1.34315 2 3H4C4 2.44772 4.44772 2 5 2V0Z" fill="black" fill-opacity="0.1" style="mix-blend-mode:multiply"/>
</g>
<defs>
<filter id="filter0_d" x="0" y="0" width="30" height="24" filterUnits="userSpaceOnUse" color-interpolation-filters="sRGB">
<feFlood flood-opacity="0" result="BackgroundImageFix"/>
<feColorMatrix in="SourceAlpha" type="matrix" values="0 0 0 0 0 0 0 0 0 0 0 0 0 0 0 0 0 0 127 0"/>
<feOffset dy="2"/>
<feGaussianBlur stdDeviation="1.5"/>
<feColorMatrix type="matrix" values="0 0 0 0 0 0 0 0 0 0 0 0 0 0 0 0 0 0 0.1 0"/>
<feBlend mode="normal" in2="BackgroundImageFix" result="effect1_dropShadow"/>
<feBlend mode="normal" in="SourceGraphic" in2="effect1_dropShadow" result="shape"/>
</filter>
<linearGradient id="paint0_linear" x1="15.1665" y1="1" x2="15.1665" y2="19.2498" gradientUnits="userSpaceOnUse">
<stop stop-color="white" stop-opacity="0.7"/>
<stop offset="1" stop-opacity="0.3"/>
</linearGradient>
<clipPath id="clip0">
<path d="M3 3C3 1.89543 3.89543 1 5 1H25C26.1046 1 27 1.89543 27 3V17C27 18.1046 26.1046 19 25 19H5C3.89543 19 3 18.1046 3 17V3Z" fill="white"/>
</clipPath>
</defs>
</svg>
