<svg width="30" height="24" viewBox="0 0 30 24" fill="none" xmlns="http://www.w3.org/2000/svg">
<g filter="url(#filter0_d)">
<mask id="mask0" mask-type="alpha" maskUnits="userSpaceOnUse" x="3" y="1" width="24" height="18">
<rect x="3" y="1" width="24" height="18" fill="white"/>
</mask>
<g mask="url(#mask0)">
<path fill-rule="evenodd" clip-rule="evenodd" d="M3 1H27V19H3V1Z" fill="#F7FCFF"/>
<path fill-rule="evenodd" clip-rule="evenodd" d="M3 1V19H27V1H3Z" fill="#E31D1C"/>
<mask id="mask1" mask-type="alpha" maskUnits="userSpaceOnUse" x="3" y="1" width="24" height="18">
<path fill-rule="evenodd" clip-rule="evenodd" d="M3 1V19H27V1H3Z" fill="white"/>
</mask>
<g mask="url(#mask1)">
<path fill-rule="evenodd" clip-rule="evenodd" d="M15.0464 12.9851L11.1833 15.4413L12.479 11.1416L9.72359 8.33232L13.5225 8.24933L15.2032 4.00446L16.7347 8.3054L20.5246 8.37155L17.6766 11.2323L19.0065 15.3228L15.0464 12.9851Z" fill="#FFD221"/>
</g>
</g>
<rect x="3" y="1" width="24" height="18" fill="url(#paint0_linear)" style="mix-blend-mode:overlay"/>
<path d="M5 2H25V0H5V2ZM26 3V17H28V3H26ZM25 18H5V20H25V18ZM4 17V3H2V17H4ZM5 18C4.44772 18 4 17.5523 4 17H2C2 18.6569 3.34314 20 5 20V18ZM26 17C26 17.5523 25.5523 18 25 18V20C26.6569 20 28 18.6569 28 17H26ZM25 2C25.5523 2 26 2.44771 26 3H28C28 1.34315 26.6569 0 25 0V2ZM5 0C3.34315 0 2 1.34315 2 3H4C4 2.44772 4.44772 2 5 2V0Z" fill="black" fill-opacity="0.1" style="mix-blend-mode:multiply"/>
</g>
<defs>
<filter id="filter0_d" x="0" y="0" width="30" height="24" filterUnits="userSpaceOnUse" color-interpolation-filters="sRGB">
<feFlood flood-opacity="0" result="BackgroundImageFix"/>
<feColorMatrix in="SourceAlpha" type="matrix" values="0 0 0 0 0 0 0 0 0 0 0 0 0 0 0 0 0 0 127 0"/>
<feOffset dy="2"/>
<feGaussianBlur stdDeviation="1.5"/>
<feColorMatrix type="matrix" values="0 0 0 0 0 0 0 0 0 0 0 0 0 0 0 0 0 0 0.1 0"/>
<feBlend mode="normal" in2="BackgroundImageFix" result="effect1_dropShadow"/>
<feBlend mode="normal" in="SourceGraphic" in2="effect1_dropShadow" result="shape"/>
</filter>
<linearGradient id="paint0_linear" x1="15" y1="1" x2="15" y2="19" gradientUnits="userSpaceOnUse">
<stop stop-color="white" stop-opacity="0.7"/>
<stop offset="1" stop-opacity="0.3"/>
</linearGradient>
</defs>
</svg>
