<svg width="73" height="72" viewBox="0 0 73 72" fill="none" xmlns="http://www.w3.org/2000/svg">
<path d="M36.5 29.25V40.5" stroke="#D91F2C" stroke-width="3.375" stroke-linecap="round" stroke-linejoin="round"/>
<path d="M32.6055 11.2457L7.86221 53.9935C7.46628 54.6775 7.25749 55.4538 7.25684 56.2441C7.25618 57.0344 7.46369 57.811 7.85848 58.4957C8.25328 59.1804 8.82142 59.749 9.50577 60.1443C10.1901 60.5397 10.9665 60.7478 11.7569 60.7478H61.2435C62.0338 60.7479 62.8102 60.5397 63.4946 60.1443C64.1789 59.749 64.7471 59.1804 65.1419 58.4957C65.5367 57.811 65.7442 57.0345 65.7435 56.2441C65.7428 55.4538 65.534 54.6775 65.1381 53.9935L40.3948 11.2457C39.9995 10.5628 39.4316 9.9958 38.748 9.60165C38.0644 9.20749 37.2892 9 36.5002 9C35.7111 9 34.9359 9.20749 34.2523 9.60165C33.5687 9.9958 33.0008 10.5628 32.6055 11.2457V11.2457Z" stroke="#D91F2C" stroke-width="3.375" stroke-linecap="round" stroke-linejoin="round"/>
<path d="M36.5 53.4375C38.0533 53.4375 39.3125 52.1783 39.3125 50.625C39.3125 49.0717 38.0533 47.8125 36.5 47.8125C34.9467 47.8125 33.6875 49.0717 33.6875 50.625C33.6875 52.1783 34.9467 53.4375 36.5 53.4375Z" fill="#D91F2C"/>
</svg>
